<?xml version="1.0" encoding="utf-8"?>
<!-- Generator: Adobe Illustrator 19.1.0, SVG Export Plug-In . SVG Version: 6.00 Build 0)  -->
<!DOCTYPE svg PUBLIC "-//W3C//DTD SVG 1.1//EN" "http://www.w3.org/Graphics/SVG/1.1/DTD/svg11.dtd">
<svg version="1.1" id="Layer_1" xmlns="http://www.w3.org/2000/svg" xmlns:xlink="http://www.w3.org/1999/xlink" x="0px" y="0px"
	 viewBox="720.7 83.6 125 82.6" style="enable-background:new 720.7 83.6 125 82.6;" xml:space="preserve">
<style type="text/css">
	.st0{fill:#FFFFFF;}
	.st1{fill:#D50000;}
</style>
<g>
	<g>
		<g>
			<path class="st0" d="M763.2,115.3h-14l0.2-6.3h-8.7l-3.2,6.3h-14.1l14.9-25.1h9.9l-5.9-6.6h19.2L763.2,115.3z M749.5,102.5
				l0.4-11.3l-5.9,11.3H749.5z"/>
			<path class="st0" d="M802.7,95.3c-1.5,5.9-5.3,8.8-11.2,8.8h-11l-3,11.1h-13.6l8.5-31.7H797c4.6,0,6.9,1.9,6.9,5.5
				c0,1-0.2,2.1-0.5,3.3L802.7,95.3z M789.6,93.9c0.1-0.4,0.1-0.8,0.1-1.1c0-1.5-1.2-2.3-3.6-2.3h-1.9l-1.9,6.9h1.9
				C787.2,97.4,789,96.2,789.6,93.9z"/>
			<path class="st0" d="M843.9,90.4h-11.5l-6.7,24.9h-13.6l6.7-24.9h-11.4l1.8-6.8h36.5L843.9,90.4z"/>
		</g>
		<g>
			<path class="st1" d="M729.1,119.1l-1.5,0.6c-0.1-0.4-0.2-0.5-0.4-0.7c-0.2-0.1-0.4-0.2-0.8-0.2c-0.4,0-0.9,0.1-1.2,0.3
				c-0.4,0.2-0.6,0.5-0.7,0.8c-0.2,0.4,0.1,0.8,0.7,1.1l0.9,0.4c0.7,0.3,1.2,0.6,1.5,1.1c0.3,0.4,0.2,0.9,0,1.5
				c-0.3,0.8-0.9,1.5-1.7,2c-0.9,0.5-1.7,0.8-2.7,0.8c-0.9,0-1.5-0.2-2-0.7c-0.4-0.4-0.5-1.1-0.4-1.9l1.7-0.3
				c-0.1,0.5-0.1,0.9,0,1.1c0.2,0.4,0.5,0.5,1.2,0.5c0.5,0,0.9-0.1,1.4-0.4c0.4-0.3,0.7-0.6,0.9-1.1c0.1-0.2,0.1-0.3,0.1-0.5
				c0-0.1-0.1-0.3-0.1-0.4c-0.1-0.1-0.2-0.2-0.3-0.4c-0.1-0.1-0.4-0.2-0.5-0.3l-0.9-0.3c-1.2-0.5-1.7-1.3-1.3-2.3
				c0.2-0.7,0.8-1.2,1.5-1.7c0.8-0.4,1.6-0.7,2.5-0.7C728.1,117.6,728.8,118.1,729.1,119.1z"/>
			<path class="st1" d="M741.6,123l-1.4,3.6h-1.5l3.4-8.9h1.8c0.9,0,1.5,0.1,1.9,0.1c0.4,0.1,0.7,0.3,1,0.5c0.4,0.5,0.5,1.1,0.2,1.9
				c-0.3,0.8-0.9,1.5-1.7,1.9c-0.8,0.5-1.8,0.7-2.8,0.7L741.6,123L741.6,123z M742.1,121.8h0.5c1.4,0,2.3-0.5,2.7-1.4
				c0.4-0.9-0.2-1.4-1.7-1.4h-0.5L742.1,121.8z"/>
			<path class="st1" d="M757.6,122.1c0.5-1.2,1.4-2.3,2.8-3.2c1.4-0.9,2.9-1.4,4.4-1.4c1.5,0,2.6,0.4,3.3,1.4c0.7,0.9,0.9,2,0.4,3.3
				c-0.5,1.3-1.4,2.3-2.8,3.3c-1.4,0.9-2.9,1.4-4.4,1.4c-1.4,0-2.4-0.4-3.2-1.2C757.3,124.7,757.1,123.6,757.6,122.1z M759.3,122.1
				c-0.4,1-0.3,1.8,0.2,2.4s1.3,0.9,2.3,0.9c1.1,0,2.2-0.3,3.2-1c1-0.6,1.7-1.4,2-2.4c0.4-0.9,0.3-1.7-0.2-2.4c-0.5-0.6-1.3-1-2.4-1
				s-2.1,0.3-3.1,1C760.2,120.4,759.6,121.2,759.3,122.1z"/>
			<path class="st1" d="M784.1,122.8l1.8,3.8H784l-1.6-3.6h-0.3l-1.4,3.6h-1.5l3.4-8.9h1.9c1.4,0,2.3,0.2,2.7,0.7
				c0.5,0.5,0.5,1.1,0.3,2c-0.2,0.6-0.7,1.2-1.2,1.6C785.5,122.4,784.9,122.7,784.1,122.8z M782.6,121.8h0.5c1.5,0,2.4-0.5,2.8-1.5
				c0.4-0.9-0.2-1.4-1.7-1.4h-0.5L782.6,121.8z"/>
			<path class="st1" d="M803.5,119l-2.9,7.7H799l2.9-7.7h-2.4l0.5-1.3h6.4l-0.5,1.3L803.5,119L803.5,119L803.5,119z"/>
			<path class="st1" d="M823.5,119.1l-1.5,0.6c-0.1-0.4-0.2-0.5-0.4-0.7c-0.2-0.1-0.4-0.2-0.8-0.2c-0.4,0-0.9,0.1-1.2,0.3
				c-0.4,0.2-0.6,0.5-0.7,0.8c-0.2,0.4,0.1,0.8,0.7,1.1l0.9,0.4c0.7,0.3,1.2,0.6,1.5,1.1c0.3,0.4,0.2,0.9,0,1.5
				c-0.3,0.8-0.9,1.5-1.7,2c-0.9,0.5-1.7,0.8-2.7,0.8c-0.9,0-1.5-0.2-2-0.7c-0.4-0.4-0.5-1.1-0.4-1.9l1.7-0.3
				c-0.1,0.5-0.1,0.9,0,1.1c0.2,0.4,0.5,0.5,1.2,0.5c0.5,0,0.9-0.1,1.4-0.4c0.4-0.3,0.7-0.6,0.9-1.1c0.1-0.2,0.1-0.3,0.1-0.5
				c0-0.1-0.1-0.3-0.1-0.4c-0.1-0.1-0.2-0.2-0.3-0.4c-0.1-0.1-0.4-0.2-0.5-0.3l-0.9-0.3c-1.2-0.5-1.7-1.3-1.3-2.3
				c0.2-0.7,0.8-1.2,1.5-1.7c0.8-0.4,1.6-0.7,2.5-0.7C822.4,117.6,823.2,118.1,823.5,119.1z"/>
		</g>
		<g>
			<path class="st1" d="M828.4,118h-1.2l0.1-0.4h2.9l-0.1,0.4h-1.2l-0.7,3.6h-0.5L828.4,118z"/>
			<path class="st1" d="M833.3,121.6l0.3-2.2c0.1-0.4,0.1-1,0.2-1.4l0,0c-0.2,0.4-0.4,0.9-0.6,1.3l-1.2,2.2h-0.4l-0.3-2.2
				c-0.1-0.5-0.1-0.9-0.1-1.4l0,0c-0.1,0.4-0.2,1-0.3,1.4l-0.5,2.2h-0.5l1.1-4.1h0.6l0.3,2.3c0.1,0.4,0.1,0.7,0.1,1l0,0
				c0.1-0.3,0.3-0.7,0.5-1l1.3-2.3h0.6l-0.5,4.1L833.3,121.6L833.3,121.6z"/>
		</g>
	</g>
</g>
<polyline class="st0" points="760.2,140.1 786.3,166.2 811.7,140.8 800.7,140.7 786.2,155.2 771.1,140.1 "/>
</svg>
