<?xml version="1.0" encoding="utf-8"?>
<!-- Generator: Adobe Illustrator 19.1.0, SVG Export Plug-In . SVG Version: 6.00 Build 0)  -->
<!DOCTYPE svg PUBLIC "-//W3C//DTD SVG 1.1//EN" "http://www.w3.org/Graphics/SVG/1.1/DTD/svg11.dtd">
<svg version="1.1" id="Layer_1" xmlns="http://www.w3.org/2000/svg" xmlns:xlink="http://www.w3.org/1999/xlink" x="0px" y="0px"
	 viewBox="385.2 -138.1 791.7 526" style="enable-background:new 385.2 -138.1 791.7 526;" xml:space="preserve">
<style type="text/css">
	.st0{fill:#FFFFFF;}
	.st1{fill:#D50000;}
</style>
<g>
	<g>
		<g>
			<path class="st0" d="M654.8,64.1h-88.9l1.2-39.6h-54.8L492,64.1h-89l94.1-158.7h62.8l-37.6-42.1h121.5L654.8,64.1z M567.5-17.1
				l2.3-71.3l-37.2,71.3H567.5z"/>
			<path class="st0" d="M904.7-62.5c-9.7,37.3-33.7,56-70.9,56h-69.8L745,64h-85.8L713-136.5h155.5c29.3,0,43.9,11.7,43.9,34.8
				c0,6.3-1.2,13.3-3.2,21.2L904.7-62.5z M821.5-71.6c0.8-2.8,0.8-5.1,0.8-7.1c0-9.7-7.8-14.8-23.1-14.8H787l-12,43.9h12.2
				C806.3-49.2,817.6-56.6,821.5-71.6z"/>
			<path class="st0" d="M1165.5-93.6h-72.9L1050.3,64h-85.8l42.3-157.5h-72.5l11.3-43.1h231.3L1165.5-93.6z"/>
		</g>
		<g>
			<path class="st1" d="M438.6,88l-9.7,4c-0.8-2.3-1.5-3.5-2.8-4.3c-1.3-0.8-2.8-1.2-5.1-1.2c-2.8,0-5.5,0.8-7.8,2s-4,3.2-4.7,5.1
				c-1.2,2.8,0.4,5.1,4.7,6.7l6,2.3c4.7,2,7.8,4,9.4,6.7c1.6,2.7,1.5,6,0,9.7c-2,5.1-5.5,9.4-10.9,12.9c-5.5,3.5-10.9,5.1-17.2,5.1
				c-6,0-9.7-1.5-12.5-4.3c-2.8-2.8-3.5-7.1-2.3-12.2l10.9-2c-0.8,3.2-0.8,5.5,0,6.7c1.2,2.3,3.5,3.5,7.8,3.5c3.2,0,6-0.8,8.6-2.8
				c2.8-2,4.7-4,5.5-6.7c0.4-1.2,0.8-2,0.8-3.2c0-0.8-0.4-2-0.8-2.8c-0.4-0.8-1.2-1.5-2-2.3s-2.3-1.2-3.5-2l-6-2
				c-7.8-3.2-10.5-8.3-8.3-14.5c1.5-4.3,5.1-7.8,9.7-10.5c5.1-2.8,10.2-4.3,15.7-4.3C432.1,78.6,436.7,81.7,438.6,88z"/>
			<path class="st1" d="M517.9,113l-8.6,23.1h-9.7l21.6-56.4h11.3c5.5,0,9.7,0.4,12.2,0.8c2.3,0.4,4.7,2,6.3,3.5
				c2.8,3.2,3.2,7.1,1.2,12.2c-2,5.1-5.5,9.4-10.9,12.2c-5.1,3.2-11.3,4.3-18,4.3L517.9,113L517.9,113z M521,105.2h3.5
				c9.1,0,14.8-3.2,17.2-9.1s-1.5-8.6-10.9-8.6h-3.2L521,105.2z"/>
			<path class="st1" d="M619.4,107.5c3.2-7.8,9.1-14.8,18-20.3c9.1-6,18.5-8.6,27.9-8.6s16.5,2.8,21.2,8.6c4.7,6,5.5,12.5,2.3,20.8
				c-3.2,8.3-9.1,14.8-18,20.8c-9.1,6-18.5,8.6-27.9,8.6c-8.6,0-15.3-2.8-20.3-7.8C617,124,615.8,116.5,619.4,107.5z M629.5,107.5
				c-2.3,6.3-2,11.3,1.5,15.3c3.5,4,8.3,6,14.8,6c7.1,0,13.7-2,20-6.3c6.3-4,10.5-9.1,12.9-15.3c2.3-6,2-10.9-1.2-15.3
				c-3.2-4-8.3-6.3-15.3-6.3s-13.3,2-19.6,6.3C635.8,96.6,631.5,101.7,629.5,107.5z"/>
			<path class="st1" d="M787.1,111.8l11.3,24.3h-12.2L775.9,113h-2l-8.6,23.1h-9.7l21.6-56.4H789c8.6,0,14.5,1.2,17.2,4.3
				c3.2,3.2,3.5,7.1,2,12.5c-1.5,4-4.3,7.5-7.8,10.2C796,109.2,791.8,111.1,787.1,111.8z M777.2,105.6h3.2c9.4,0,15.3-3.2,17.6-9.4
				c2.3-6-1.2-8.6-10.5-8.6H784L777.2,105.6z"/>
			<path class="st1" d="M909.7,87.6l-18.4,48.6h-9.7l18.5-48.5h-15.3l3.2-8.3h40.4l-3.2,8.3L909.7,87.6L909.7,87.6L909.7,87.6z"/>
			<path class="st1" d="M1036.3,88l-9.7,4c-0.8-2.3-1.5-3.5-2.8-4.3c-1.3-0.8-2.8-1.2-5.1-1.2c-2.8,0-5.5,0.8-7.8,2
				c-2.3,1.2-4,3.2-4.7,5.1c-1.2,2.8,0.4,5.1,4.7,6.7l6,2.3c4.7,2,7.8,4,9.4,6.7c1.6,2.7,1.5,6,0,9.7c-2,5.1-5.5,9.4-10.9,12.9
				c-5.5,3.5-10.9,5.1-17.2,5.1c-6,0-9.7-1.5-12.5-4.3c-2.8-2.8-3.5-7.1-2.3-12.2l10.9-2c-0.8,3.2-0.8,5.5,0,6.7
				c1.2,2.3,3.5,3.5,7.8,3.5c3.2,0,6-0.8,8.6-2.8c2.8-2,4.7-4,5.5-6.7c0.4-1.2,0.8-2,0.8-3.2c0-0.8-0.4-2-0.8-2.8
				c-0.4-0.8-1.2-1.5-2-2.3s-2.3-1.2-3.5-2l-6-1.8c-7.8-3.2-10.5-8.3-8.3-14.5c1.5-4.3,5.1-7.8,9.7-10.5c5.1-2.8,10.2-4.3,15.7-4.3
				C1029.6,78.6,1034.3,81.7,1036.3,88z"/>
		</g>
		<g>
			<path class="st1" d="M1067.2,81.3h-7.8l0.4-2.8h18.5l-0.4,2.8h-7.8l-4.3,23.1h-3.2L1067.2,81.3z"/>
			<path class="st1" d="M1098.6,104.4l2-14c0.4-2.3,0.8-6.3,1.2-8.6l0,0c-1.2,2.8-2.8,6-4,8.3l-7.8,14h-2.3l-2-14
				c-0.4-3.2-0.8-6-0.8-8.6l0,0c-0.4,2.3-1.2,6.3-2,8.6l-3.5,14h-3.2l6.7-25.9h4l2,14.8c0.4,2.3,0.4,4.3,0.8,6.3l0,0
				c0.8-2,2-4.3,3.2-6.3l8.2-14.8h4l-3.2,25.9L1098.6,104.4L1098.6,104.4z"/>
		</g>
	</g>
</g>
<polygon class="st0" points="895.1,203 781,317.2 666.9,203 596.1,203 781,387.9 965.9,203 "/>
</svg>
