<?xml version="1.0" encoding="utf-8"?>
<!-- Generator: Adobe Illustrator 19.1.0, SVG Export Plug-In . SVG Version: 6.00 Build 0)  -->
<!DOCTYPE svg PUBLIC "-//W3C//DTD SVG 1.1//EN" "http://www.w3.org/Graphics/SVG/1.1/DTD/svg11.dtd">
<svg version="1.1" id="Layer_1" xmlns="http://www.w3.org/2000/svg" xmlns:xlink="http://www.w3.org/1999/xlink" x="0px" y="0px"
	 viewBox="758.2 108.4 50 33" style="enable-background:new 758.2 108.4 50 33;" xml:space="preserve">
<style type="text/css">
	.st0{fill:#FFFFFF;}
	.st1{fill:#D50000;}
</style>
<g>
	<g>
		<g>
			<path class="st0" d="M775.2,121.1h-5.6l0.1-2.5h-3.5l-1.3,2.5h-5.6l5.9-10h4l-2.4-2.7h7.7L775.2,121.1z M769.7,115.9l0.1-4.5
				l-2.3,4.5H769.7z"/>
			<path class="st0" d="M791,113.1c-0.6,2.4-2.1,3.5-4.5,3.5h-4.4l-1.2,4.5h-5.4l3.4-12.7h9.8c1.9,0,2.8,0.7,2.8,2.2
				c0,0.4-0.1,0.8-0.2,1.3L791,113.1z M785.7,112.5c0.1-0.2,0.1-0.3,0.1-0.4c0-0.6-0.5-0.9-1.5-0.9h-0.8l-0.8,2.8h0.8
				C784.8,113.9,785.5,113.4,785.7,112.5z"/>
			<path class="st0" d="M807.5,111.1h-4.6l-2.7,10h-5.4l2.7-9.9h-4.6l0.7-2.7h14.6L807.5,111.1z"/>
		</g>
		<g>
			<path class="st1" d="M761.5,122.6l-0.6,0.3c-0.1-0.1-0.1-0.2-0.2-0.3c-0.1-0.1-0.2-0.1-0.3-0.1c-0.2,0-0.3,0.1-0.5,0.1
				s-0.3,0.2-0.3,0.3c-0.1,0.2,0,0.3,0.3,0.4l0.4,0.1c0.3,0.1,0.5,0.3,0.6,0.4c0.1,0.2,0.1,0.4,0,0.6c-0.1,0.3-0.3,0.6-0.7,0.8
				s-0.7,0.3-1.1,0.3c-0.4,0-0.6-0.1-0.8-0.3s-0.2-0.4-0.1-0.8l0.7-0.1c-0.1,0.2-0.1,0.3,0,0.4c0.1,0.1,0.2,0.2,0.5,0.2
				c0.2,0,0.4-0.1,0.5-0.2c0.2-0.1,0.3-0.3,0.3-0.4c0-0.1,0.1-0.1,0.1-0.2c0-0.1,0-0.1-0.1-0.2c0-0.1-0.1-0.1-0.1-0.1
				c-0.1-0.1-0.1-0.1-0.2-0.1l-0.4-0.1c-0.5-0.2-0.7-0.5-0.5-0.9c0.1-0.3,0.3-0.5,0.6-0.7c0.3-0.2,0.6-0.3,1-0.3
				C761.1,122,761.4,122.2,761.5,122.6z"/>
			<path class="st1" d="M766.6,124.1l-0.5,1.5h-0.6l1.4-3.6h0.7c0.3,0,0.6,0,0.8,0.1c0.1,0,0.3,0.1,0.4,0.2c0.2,0.2,0.2,0.4,0.1,0.8
				c-0.1,0.3-0.3,0.6-0.7,0.8c-0.3,0.2-0.7,0.3-1.1,0.3L766.6,124.1L766.6,124.1z M766.7,123.6h0.2c0.6,0,0.9-0.2,1.1-0.6
				c0.2-0.4-0.1-0.5-0.7-0.5h-0.2L766.7,123.6z"/>
			<path class="st1" d="M773,123.8c0.2-0.5,0.6-0.9,1.1-1.3c0.6-0.4,1.2-0.5,1.8-0.5c0.6,0,1,0.2,1.3,0.5c0.3,0.4,0.3,0.8,0.1,1.3
				c-0.2,0.5-0.6,0.9-1.1,1.3c-0.6,0.4-1.2,0.5-1.8,0.5c-0.5,0-1-0.2-1.3-0.5C772.8,124.8,772.7,124.4,773,123.8z M773.6,123.8
				c-0.1,0.4-0.1,0.7,0.1,1c0.2,0.3,0.5,0.4,0.9,0.4c0.4,0,0.9-0.1,1.3-0.4c0.4-0.3,0.7-0.6,0.8-1c0.1-0.4,0.1-0.7-0.1-1
				c-0.2-0.3-0.5-0.4-1-0.4c-0.4,0-0.8,0.1-1.2,0.4C774,123.1,773.7,123.4,773.6,123.8z"/>
			<path class="st1" d="M783.6,124.1l0.7,1.5h-0.8l-0.6-1.5h-0.1l-0.5,1.5h-0.6l1.4-3.6h0.7c0.5,0,0.9,0.1,1.1,0.3
				c0.2,0.2,0.2,0.4,0.1,0.8c-0.1,0.3-0.3,0.5-0.5,0.6C784.1,123.9,783.8,124,783.6,124.1z M782.9,123.7h0.2c0.6,0,1-0.2,1.1-0.6
				c0.1-0.4-0.1-0.5-0.7-0.5h-0.2L782.9,123.7z"/>
			<path class="st1" d="M791.3,122.5l-1.2,3.1h-0.6l1.2-3.1h-1l0.2-0.5h2.6l-0.2,0.5L791.3,122.5L791.3,122.5L791.3,122.5z"/>
			<path class="st1" d="M799.3,122.6l-0.6,0.3c-0.1-0.1-0.1-0.2-0.2-0.3c-0.1-0.1-0.2-0.1-0.3-0.1c-0.2,0-0.3,0.1-0.5,0.1
				c-0.1,0.1-0.3,0.2-0.3,0.3c-0.1,0.2,0,0.3,0.3,0.4l0.4,0.1c0.3,0.1,0.5,0.3,0.6,0.4c0.1,0.2,0.1,0.4,0,0.6
				c-0.1,0.3-0.3,0.6-0.7,0.8s-0.7,0.3-1.1,0.3c-0.4,0-0.6-0.1-0.8-0.3s-0.2-0.4-0.1-0.8l0.7-0.1c-0.1,0.2-0.1,0.3,0,0.4
				c0.1,0.1,0.2,0.2,0.5,0.2c0.2,0,0.4-0.1,0.5-0.2c0.2-0.1,0.3-0.3,0.3-0.4c0-0.1,0.1-0.1,0.1-0.2c0-0.1,0-0.1-0.1-0.2
				c0-0.1-0.1-0.1-0.1-0.1c-0.1-0.1-0.1-0.1-0.2-0.1l-0.4-0.1c-0.5-0.2-0.7-0.5-0.5-0.9c0.1-0.3,0.3-0.5,0.6-0.7
				c0.3-0.2,0.6-0.3,1-0.3C798.9,122,799.2,122.2,799.3,122.6z"/>
		</g>
		<g>
			<path class="st1" d="M801.2,122.1h-0.5l0-0.2h1.2l0,0.2h-0.5l-0.3,1.5H801L801.2,122.1z"/>
			<path class="st1" d="M803.2,123.6l0.1-0.9c0-0.1,0.1-0.4,0.1-0.5l0,0c-0.1,0.2-0.2,0.4-0.3,0.5l-0.5,0.9h-0.1l-0.1-0.9
				c0-0.2-0.1-0.4-0.1-0.5l0,0c0,0.1-0.1,0.4-0.1,0.5l-0.2,0.9h-0.2l0.4-1.6h0.3l0.1,0.9c0,0.1,0,0.3,0.1,0.4l0,0
				c0.1-0.1,0.1-0.3,0.2-0.4l0.5-0.9h0.3l-0.2,1.6L803.2,123.6L803.2,123.6z"/>
		</g>
	</g>
</g>
<polyline class="st0" points="774,131 784.4,141.4 794.6,131.3 790.2,131.2 784.4,137 778.3,131 "/>
</svg>
