<?xml version="1.0" encoding="utf-8"?>
<!-- Generator: Adobe Illustrator 19.1.0, SVG Export Plug-In . SVG Version: 6.00 Build 0)  -->
<svg version="1.1" id="Layer_1" xmlns="http://www.w3.org/2000/svg" xmlns:xlink="http://www.w3.org/1999/xlink" x="0px" y="0px"
	 viewBox="-22.8 464.4 165 165" style="enable-background:new -22.8 464.4 165 165;" xml:space="preserve">
<style type="text/css">
	.st0{fill:#D31F26;}
	.st1{fill:none;}
	.st2{fill:#BCBEC0;}
	.st3{fill:#FFFFFF;}
</style>
<path class="st0" d="M59.7,477.8c38.1,0,69.1,31.1,69.1,69.1S97.8,616,59.7,616s-69.1-31-69.1-69.1
	C-9.4,508.8,21.6,477.8,59.7,477.8z"/>
<path class="st1" d="M59.7,616c38.1,0,69.1-31.1,69.1-69.1s-31-69.1-69.1-69.1s-69.1,31-69.1,69.1S21.6,616,59.7,616z"/>
<path class="st2" d="M59.7,464.4c-45.5,0-82.5,37-82.5,82.5s37,82.5,82.5,82.5s82.5-37,82.5-82.5S105.2,464.4,59.7,464.4z
	 M59.7,471.3c41.6,0,75.6,34,75.6,75.6s-34,75.6-75.6,75.6s-75.6-34-75.6-75.6C-15.9,505.3,18.1,471.3,59.7,471.3z"/>
<g>
	<path class="st3" d="M23.6,508.2c-1-1.7-0.4-3.8,1.3-4.7l6.4-3.4c1.8-1,4-0.4,5,1.3l4,6.4c-4.6,1.7-8.9,4.1-12.7,6.9L23.6,508.2z"
		/>
	<path class="st3" d="M91.3,514.6c-3.8-2.8-8.1-5.2-12.7-6.9l4-6.4c1-1.7,3.3-2.2,5-1.3l6.4,3.4c1.8,1,2.4,3.1,1.4,4.7L91.3,514.6z"
		/>
	<path class="st3" d="M48.4,497.4v-6.9c0-1.9,1.6-3.4,3.7-3.4h14.7c2,0,3.7,1.5,3.7,3.4v6.9c0,1.9-1.6,3.4-3.7,3.4v4
		c-2.4-0.3-4.9-0.6-7.4-0.6c-2.5,0-4.9,0.2-7.4,0.6v-4C50,500.8,48.4,499.3,48.4,497.4z"/>
	<path class="st3" d="M59.4,524.5l7.4,31c0,3.8-3.3,6.9-7.4,6.9s-7.4-3.1-7.4-6.9L59.4,524.5z"/>
	<path class="st3" d="M25.8,587.9c7.1,6.5,15.7,10.6,25.5,12.2c2.8,0.5,5.7,0.7,8.5,0.7c7.7,0,15.4-1.8,22.7-5.4
		c1.7-0.8,2.4-2,2.5-3.7c0-1.7-0.7-2.9-2.3-3.8c-0.7-0.4-1.4-0.5-2.1-0.5c-0.9,0-1.9,0.3-3.1,0.8c-5.5,2.7-11.5,4.1-17.8,4.1l-0.5,0
		c-7.1-0.1-14-2-20.5-5.6C25.1,579,17.6,562.9,21,548.4c2.9-12.3,10.4-21.2,22.4-26.4c5.2-2.2,10.6-3.4,16-3.4
		c3.9,0,7.9,0.6,11.8,1.8c12.7,3.8,21.3,11.8,25.7,23.6c1.4,3.7,2,7.5,1.8,11.6l-0.1,2.8h-3.1h-7.2l14.8,14l15-14h-6.9h-3.4
		c0,0,0-2.7,0-3.3c0-0.3,0-0.7,0-1l0-0.2c-0.1-4.4-0.9-8.8-2.5-12.9c-4-10.9-11.5-19.2-22.1-24.9c-6-3.2-12.6-5.1-19.5-5.7
		c-1.4-0.1-2.9-0.2-4.3-0.2c-5.8,0-11.5,1-16.9,2.9c-11.5,4.1-20.3,11.4-26.1,21.7c-4.6,8.2-6.3,17.1-5,26.5
		C13,571.7,17.8,580.6,25.8,587.9z"/>
</g>
</svg>
