<?xml version="1.0" encoding="utf-8"?>
<!-- Generator: Adobe Illustrator 19.1.0, SVG Export Plug-In . SVG Version: 6.00 Build 0)  -->
<svg version="1.1" id="Layer_1" xmlns="http://www.w3.org/2000/svg" xmlns:xlink="http://www.w3.org/1999/xlink" x="0px" y="0px"
	 viewBox="-39.5 -39.5 165 165" style="enable-background:new -39.5 -39.5 165 165;" xml:space="preserve">
<style type="text/css">
	.st0{fill:none;}
	.st1{fill:#D31F26;}
	.st2{fill:#FFFFFF;}
</style>
<path d="M37.2,73c-2.8,1.2-5.4,2.1-8.1,3c-4.9,1.6-9.8,3-14.9,3.7C9.5,80.2,4.7,80.6,0,79.1c-8.6-2.6-12.3-10-9.3-18.4
	c1.8-5.1,4.7-9.3,8.1-13.3c7.9-9.3,17.7-16.7,27.9-23c7.2-4.6,14.7-8.4,22.6-11.6c7.9-3.2,16-5.6,24.4-6.5C77.7,6,81.8,6,85.8,7
	c8.6,2.5,12.3,9.7,9.7,18.1C93.5,30.9,90,35.8,86,40.2c-4,4.6-8.6,8.6-13.3,12.3c-0.2,0.2-0.4,0.4-0.5,0.4c0-2.5,0-4.9,0-7.4
	c0-0.9,0.2-1.8,0-2.5c-0.2-1.4,0.4-2.3,1.4-3.3c4-3.7,7.7-7.5,10.7-12.1c1.4-2.1,2.6-4.2,3-6.8c0.4-2.3-0.5-3.7-2.6-4.6
	c-3-1.1-6-1.1-9.1-0.9c-9.5,0.9-18.3,4-26.8,7.9C34.1,29.8,20.5,38.3,9.3,49.7C5.8,53.2,2.6,57,0.4,61.6c-0.5,1.1-0.9,2.1-1.1,3.3
	c-0.5,3,0.5,4.6,3.5,5.3c1.8,0.5,3.7,0.7,5.6,0.7c6-0.2,11.6-1.4,17.2-3.3c0.9-0.4,1.6-0.2,2.5,0.4c2.6,1.6,5.3,2.8,7.9,4.2
	C36.2,72.3,36.5,72.7,37.2,73z"/>
<path d="M58.3,42.8c0-5.8-0.4-11.6-1.1-17.4c0-0.7,0-0.9,0.7-1.2c2.5-0.9,4.7-1.6,7.2-2.3c0.7-0.2,1.1,0,1.1,0.7
	c1.2,9.3,1.6,18.8,1.1,28.3c-0.4,8.1-1.4,16-3.2,23.7c-1.6,6.8-3.9,13.7-7.9,19.7c-2.1,3.3-4.7,6.1-8.6,7.5
	c-5.6,2.1-10.4,0.5-14.4-3.5c-3.5-3.3-5.6-7.5-7.4-11.8c-0.5-1.1-0.9-2.1-1.2-3.3c-0.4-0.7-0.2-1.1,0.5-1.2c2.3-0.7,4.6-1.4,6.8-2.1
	c0.7-0.2,1.1-0.2,1.2,0.7c1.1,3.2,2.5,6.3,4.4,9.1c0.7,0.9,1.4,1.9,2.3,2.6c1.9,1.6,3.7,1.6,5.6,0c2.3-1.9,3.7-4.4,4.9-7
	c2.8-6,4.4-12.5,5.6-19C57.7,58.4,58.1,50.7,58.3,42.8z"/>
<path d="M19.8,23c0.5-4.7,1.4-9.5,2.6-13.9C23.9,3.5,26-2.1,29-7c2.1-3.3,4.4-6.3,7.9-8.1c5.4-2.6,10.4-1.8,14.9,2.1
	c3.2,2.6,5.1,6.1,7,9.7c1.1,1.9,1.8,4,2.6,6.1c0.4,0.7,0.4,1.1-0.5,1.4c-2.3,0.5-4.7,1.2-6.8,2.1c-0.9,0.4-1.1,0-1.2-0.7
	C51.4,2.1,50-1.6,47.6-4.6c-0.5-0.7-1.1-1.2-1.8-1.8c-1.6-1.4-3.3-1.4-5.1-0.2c-1.2,0.9-2.1,1.9-3,3.2c-3.5,5.3-5.3,11.2-6.7,17.2
	c-0.4,1.9-1.1,3.2-2.8,4.2C25.3,19.5,22.8,21.2,19.8,23z"/>
<path d="M7.6,6c3.7,0,6.8,0.4,10,1.1c0.5,0.2,0.7,0.2,0.5,0.9c-0.7,2.5-1.2,4.9-1.8,7.5c-0.2,0.7-0.5,0.7-1.1,0.7
	c-1.8-0.4-3.5-0.5-5.4-0.7c-2.6-0.2-5.1-0.2-7.5,0.5c-3,0.7-4,2.5-3.2,5.6c0.9,3.5,3,6.5,5.1,9.3c0.4,0.5,0.9,1.1,1.2,1.6
	c0.5,0.5,0.7,1.1,0,1.6C3.7,35.6,1.9,37.4,0,39c-0.4,0.4-0.5,0.7-1.1,0.2c-3.9-4.6-7.4-9.3-8.8-15.3c-1.2-4.7-0.7-9.3,3-13
	c2.6-2.6,6-3.9,9.5-4.6C4.4,6,6.1,6,7.6,6z"/>
<path d="M77.9,80c-3,0-6.3-0.5-9.5-1.1c-0.5-0.2-0.7-0.2-0.5-0.9c0.5-2.5,1.2-5.1,1.8-7.5c0.2-0.7,0.5-0.7,1.1-0.5
	c2.1,0.4,4,0.5,6.1,0.7c2.3,0.2,4.6,0,6.7-0.5c3.2-0.7,4.2-2.5,3.5-5.6c-0.5-2.8-2.1-5.1-3.7-7.4c-0.9-1.4-1.9-2.6-3-3.9
	c-0.4-0.5-0.4-0.7,0-1.1c1.9-1.8,3.9-3.5,5.6-5.3c0.4-0.4,0.5-0.5,0.9,0c4,4.9,7.7,10,9.1,16.3c1.6,7.2-2.5,13.7-9.7,15.8
	C83.7,79.7,80.9,80,77.9,80z"/>
<path d="M51.8,64.6c-0.5,3-1.1,5.8-1.8,8.4c-0.2,0.7-0.5,0.4-0.9,0.2c-3.3-1.4-6.5-2.8-9.7-4.4c-8.9-4.4-17.4-9.7-25.3-15.8
	c-0.9-0.7-1.1-1.1-0.2-1.8c1.8-1.6,3.5-3.2,5.3-4.7c0.5-0.5,0.9-0.5,1.4,0c8.2,6.1,16.8,11.4,26.1,15.6c1.4,0.7,2.6,1.2,4,1.8
	C51.4,64.2,51.8,64.2,51.8,64.6z"/>
<path d="M51.9,39.5l0.9-1.4h-1.6h-0.2c-1.1-1.8-2.6-3-4.6-3.9l1.1-6l0.2-0.7L47,27.4l-0.5-0.2l-0.4,0.5l-4.4,6.1
	c-4.4,0.7-7.5,4.4-7.5,8.9c0,4,2.5,7.4,6,8.8L40,52.7l-0.2,1.2l-0.4,0.9l0.9,0.2l0.5,0.2l0.4-0.5l1.8-2.3c0.2,0,0.2,0,0.4,0
	c5.1,0,9.3-4,9.3-9.1C52.5,41.8,52.3,40.7,51.9,39.5L51.9,39.5z M41.9,52.1c-0.5,0.7-0.9,1.2-1.4,1.9l0,0c0.2-0.7,0.4-1.4,0.4-2.1
	c0.5-2.8,1.1-5.6,1.6-8.6c-2.1,0-4.2,0-6.5,0c3.5-5.1,7.2-10,10.7-15.1l0,0c-0.7,3.5-1.2,7.2-1.9,10.7c2.1,0,4.2,0,6.5,0
	C48.1,43.4,44.9,47.7,41.9,52.1z"/>
<path class="st0" d="M43,112.1c38.1,0,69.1-31.1,69.1-69.1S81.1-26.1,43-26.1S-26.1,4.9-26.1,43S4.9,112.1,43,112.1z"/>
<path class="st1" d="M43-32.5C1.4-32.5-32.5,1.4-32.5,43S1.4,118.5,43,118.5s75.5-33.9,75.5-75.5S84.6-32.5,43-32.5z M43-26.1
	c38.1,0,69.1,31.1,69.1,69.1S81.1,112.1,43,112.1S-26.1,81.1-26.1,43S4.9-26.1,43-26.1z"/>
<path class="st2" d="M43-39.5c-45.5,0-82.5,37-82.5,82.5s37,82.5,82.5,82.5s82.5-37,82.5-82.5S88.5-39.5,43-39.5z M43-32.6
	c41.6,0,75.6,34,75.6,75.6s-34,75.6-75.6,75.6s-75.6-34-75.6-75.6S1.4-32.6,43-32.6z"/>
</svg>
