<?xml version="1.0" encoding="utf-8"?>
<!-- Generator: Adobe Illustrator 19.1.0, SVG Export Plug-In . SVG Version: 6.00 Build 0)  -->
<svg version="1.1" id="Layer_1" xmlns="http://www.w3.org/2000/svg" xmlns:xlink="http://www.w3.org/1999/xlink" x="0px" y="0px"
	 viewBox="-0.1 0.1 86 86" style="enable-background:new -0.1 0.1 86 86;" xml:space="preserve">
<style type="text/css">
	.st0{fill:none;}
	.st1{fill:#D31F26;}
	.st2{fill:#FFFFFF;}
	.st3{fill:#BCBEC0;}
</style>
<path class="st0" d="M42.9,82.5c21.7,0,39.4-17.7,39.4-39.4S64.6,3.7,42.9,3.7S3.5,21.4,3.5,43.1S21.2,82.5,42.9,82.5z"/>
<path class="st1" d="M82.3,43.1c0,21.7-17.7,39.4-39.4,39.4S3.5,64.8,3.5,43.1S21.2,3.7,42.9,3.7S82.3,21.4,82.3,43.1z"/>
<g>
	<path class="st2" d="M39.6,60.1c-1.6,0.7-3.1,1.2-4.6,1.7c-2.8,0.9-5.6,1.7-8.5,2.1c-2.7,0.3-5.4,0.5-8.1-0.3
		c-4.9-1.5-7-5.7-5.3-10.5c1-2.9,2.7-5.3,4.6-7.6c4.5-5.3,10.1-9.5,15.9-13.1c4.1-2.6,8.4-4.8,12.9-6.6c4.5-1.8,9.1-3.2,13.9-3.7
		c2.3-0.2,4.6-0.2,6.9,0.4c4.9,1.4,7,5.5,5.5,10.3c-1.1,3.3-3.1,6.1-5.4,8.6c-2.3,2.6-4.9,4.9-7.6,7c-0.1,0.1-0.2,0.2-0.3,0.2
		c0-1.4,0-2.8,0-4.2c0-0.5,0.1-1,0-1.4c-0.1-0.8,0.2-1.3,0.8-1.9c2.3-2.1,4.4-4.3,6.1-6.9c0.8-1.2,1.5-2.4,1.7-3.9
		c0.2-1.3-0.3-2.1-1.5-2.6c-1.7-0.6-3.4-0.6-5.2-0.5C56,27.7,51,29.5,46.1,31.7c-8.3,3.8-16,8.6-22.4,15.1c-2,2-3.8,4.2-5.1,6.8
		c-0.3,0.6-0.5,1.2-0.6,1.9c-0.3,1.7,0.3,2.6,2,3c1,0.3,2.1,0.4,3.2,0.4c3.4-0.1,6.6-0.8,9.8-1.9c0.5-0.2,0.9-0.1,1.4,0.2
		c1.5,0.9,3,1.6,4.5,2.4C39,59.7,39.2,59.9,39.6,60.1z"/>
	<path class="st2" d="M51.6,42.9c0-3.3-0.2-6.6-0.6-9.9c0-0.4,0-0.5,0.4-0.7c1.4-0.5,2.7-0.9,4.1-1.3c0.4-0.1,0.6,0,0.6,0.4
		c0.7,5.3,0.9,10.7,0.6,16.1c-0.2,4.6-0.8,9.1-1.8,13.5c-0.9,3.9-2.2,7.8-4.5,11.2c-1.2,1.9-2.7,3.5-4.9,4.3c-3.2,1.2-5.9,0.3-8.2-2
		c-2-1.9-3.2-4.3-4.2-6.7c-0.3-0.6-0.5-1.2-0.7-1.9c-0.2-0.4-0.1-0.6,0.3-0.7c1.3-0.4,2.6-0.8,3.9-1.2c0.4-0.1,0.6-0.1,0.7,0.4
		c0.6,1.8,1.4,3.6,2.5,5.2c0.4,0.5,0.8,1.1,1.3,1.5c1.1,0.9,2.1,0.9,3.2,0c1.3-1.1,2.1-2.5,2.8-4c1.6-3.4,2.5-7.1,3.2-10.8
		C51.3,51.8,51.5,47.4,51.6,42.9z"/>
	<path class="st2" d="M29.7,31.6c0.3-2.7,0.8-5.4,1.5-7.9c0.8-3.2,2-6.4,3.7-9.2c1.2-1.9,2.5-3.6,4.5-4.6c3.1-1.5,5.9-1,8.5,1.2
		c1.8,1.5,2.9,3.5,4,5.5c0.6,1.1,1,2.3,1.5,3.5c0.2,0.4,0.2,0.6-0.3,0.8c-1.3,0.3-2.7,0.7-3.9,1.2c-0.5,0.2-0.6,0-0.7-0.4
		c-0.8-2-1.6-4.1-3-5.8c-0.3-0.4-0.6-0.7-1-1c-0.9-0.8-1.9-0.8-2.9-0.1c-0.7,0.5-1.2,1.1-1.7,1.8c-2,3-3,6.4-3.8,9.8
		c-0.2,1.1-0.6,1.8-1.6,2.4C32.8,29.6,31.4,30.6,29.7,31.6z"/>
	<path class="st2" d="M22.7,21.9c2.1,0,3.9,0.2,5.7,0.6c0.3,0.1,0.4,0.1,0.3,0.5c-0.4,1.4-0.7,2.8-1,4.3c-0.1,0.4-0.3,0.4-0.6,0.4
		c-1-0.2-2-0.3-3.1-0.4c-1.5-0.1-2.9-0.1-4.3,0.3C18,28,17.4,29,17.9,30.8c0.5,2,1.7,3.7,2.9,5.3c0.2,0.3,0.5,0.6,0.7,0.9
		c0.3,0.3,0.4,0.6,0,0.9c-1,0.9-2,1.9-3.1,2.8c-0.2,0.2-0.3,0.4-0.6,0.1c-2.2-2.6-4.2-5.3-5-8.7c-0.7-2.7-0.4-5.3,1.7-7.4
		c1.5-1.5,3.4-2.2,5.4-2.6C20.9,21.9,21.9,21.9,22.7,21.9z"/>
	<path class="st2" d="M62.8,64.1c-1.7,0-3.6-0.3-5.4-0.6c-0.3-0.1-0.4-0.1-0.3-0.5c0.3-1.4,0.7-2.9,1-4.3c0.1-0.4,0.3-0.4,0.6-0.3
		c1.2,0.2,2.3,0.3,3.5,0.4c1.3,0.1,2.6,0,3.8-0.3c1.8-0.4,2.4-1.4,2-3.2c-0.3-1.6-1.2-2.9-2.1-4.2c-0.5-0.8-1.1-1.5-1.7-2.2
		c-0.2-0.3-0.2-0.4,0-0.6c1.1-1,2.2-2,3.2-3c0.2-0.2,0.3-0.3,0.5,0c2.3,2.8,4.4,5.7,5.2,9.3c0.9,4.1-1.4,7.8-5.5,9
		C66.1,63.9,64.5,64.1,62.8,64.1z"/>
	<path class="st2" d="M47.9,55.3c-0.3,1.7-0.6,3.3-1,4.8c-0.1,0.4-0.3,0.2-0.5,0.1c-1.9-0.8-3.7-1.6-5.5-2.5
		c-5.1-2.5-9.9-5.5-14.4-9c-0.5-0.4-0.6-0.6-0.1-1c1-0.9,2-1.8,3-2.7c0.3-0.3,0.5-0.3,0.8,0c4.7,3.5,9.6,6.5,14.9,8.9
		c0.8,0.4,1.5,0.7,2.3,1C47.7,55.1,47.9,55.1,47.9,55.3z"/>
	<path class="st2" d="M48,41l0.5-0.8h-0.9h-0.1c-0.6-1-1.5-1.7-2.6-2.2l0.6-3.4l0.1-0.4l-0.4-0.1L44.9,34l-0.2,0.3l-2.5,3.5
		c-2.5,0.4-4.3,2.5-4.3,5.1c0,2.3,1.4,4.2,3.4,5l-0.1,0.6l-0.1,0.7l-0.2,0.5l0.5,0.1l0.3,0.1l0.2-0.3l1-1.3c0.1,0,0.1,0,0.2,0
		c2.9,0,5.3-2.3,5.3-5.2C48.3,42.3,48.2,41.7,48,41L48,41z M42.3,48.2c-0.3,0.4-0.5,0.7-0.8,1.1l0,0c0.1-0.4,0.2-0.8,0.2-1.2
		c0.3-1.6,0.6-3.2,0.9-4.9c-1.2,0-2.4,0-3.7,0c2-2.9,4.1-5.7,6.1-8.6l0,0c-0.4,2-0.7,4.1-1.1,6.1c1.2,0,2.4,0,3.7,0
		C45.8,43.2,44,45.7,42.3,48.2z"/>
</g>
<path class="st3" d="M42.8,90.3c26.1,0,47.3-21.2,47.3-47.3S68.9-4.3,42.8-4.3S-4.5,17-4.5,43S16.7,90.3,42.8,90.3z M86.2,43
	c0,23.9-19.5,43.3-43.3,43.3S-0.5,66.9-0.5,43S18.9-0.2,42.8-0.2S86.2,19.2,86.2,43z"/>
</svg>
