<?xml version="1.0" encoding="utf-8"?>
<!-- Generator: Adobe Illustrator 19.1.0, SVG Export Plug-In . SVG Version: 6.00 Build 0)  -->
<svg version="1.1" id="Layer_1" xmlns="http://www.w3.org/2000/svg" xmlns:xlink="http://www.w3.org/1999/xlink" x="0px" y="0px"
	 viewBox="-383.1 221.8 165 165" style="enable-background:new -383.1 221.8 165 165;" xml:space="preserve">
<style type="text/css">
	.st0{fill:none;}
	.st1{fill:#D31F26;}
	.st2{fill:#FFFFFF;}
</style>
<path class="st0" d="M-300.6,373.4c38.1,0,69.1-31.1,69.1-69.1s-31-69.1-69.1-69.1s-69.1,31-69.1,69.1S-338.7,373.4-300.6,373.4z"/>
<path class="st1" d="M-300.6,228.8c-41.6,0-75.5,33.9-75.5,75.5s33.9,75.5,75.5,75.5s75.5-33.9,75.5-75.5S-259,228.8-300.6,228.8z
	 M-300.6,235.1c38.1,0,69.1,31.1,69.1,69.1s-31,69.1-69.1,69.1s-69.1-31-69.1-69.1S-338.7,235.1-300.6,235.1z"/>
<path class="st2" d="M-300.6,221.8c-45.5,0-82.5,37-82.5,82.5s37,82.5,82.5,82.5s82.5-37,82.5-82.5S-255.1,221.8-300.6,221.8z
	 M-300.6,228.6c41.6,0,75.6,34,75.6,75.6s-34,75.6-75.6,75.6s-75.6-34-75.6-75.6S-342.2,228.6-300.6,228.6z"/>
<g>
	<path d="M-293.8,358.3c-8.3-0.2-15.3-2.9-21.3-8c-3-2.5-5.5-5.5-7.7-8.7c-0.6-0.8-0.5-1.3,0.3-2c7.9-6.1,11.6-18.4,8.1-27.5
		c-2.1-5.4-4.7-10.6-7.8-15.4c-0.8-1.3-1-2.3-0.2-3.6c5-9.8,10.9-19.1,17.2-28.2c3.2-4.5,6.4-9,9.8-13.3c0.2-0.2,0.4-0.5,0.6-0.7
		c0.5-0.7,0.9-0.7,1.5,0c4.8,6.3,9.4,12.7,13.9,19.2c5,7.5,9.8,15.2,13.8,23.2c3.1,6.3,6,12.7,7,19.7c0.8,5.6,0.1,11.1-1.4,16.6
		c-1.4,5.1-3.6,9.8-6.7,14c-5.9,7.9-13.5,13.1-23.4,14.5C-291.7,358.2-293,358.2-293.8,358.3z"/>
	<path d="M-354.1,319.6c-0.1-4.1,1.4-7.7,3.1-11.3c3.9-8.2,9.1-15.6,14.6-22.8c0.6-0.8,1.1-0.8,1.7,0c5.3,7,10.4,14.2,14.3,22.2
		c1.9,4,3.7,8.1,3.3,12.6c-0.6,8.2-4,14.7-11.5,18.5c-5.8,3-13.3,1.9-18.2-2.6C-351.6,331.8-354,326.2-354.1,319.6z"/>
	<path d="M-259.9,297.3c-2.6-6.1-5.8-11.9-9.2-17.6c-2-3.3-4-6.6-6.1-9.8c-0.5-0.8-0.5-1.3-0.1-2.1c3.1-5.4,6.7-10.4,10.6-15.3
		c0.5-0.6,0.9-0.8,1.4-0.1c5.1,6.4,9.8,13.1,13.4,20.5c1.7,3.6,3.1,7.3,2.6,11.3c-0.8,6.9-3.8,12.4-10.2,15.7
		c-0.5,0.3-1,0.7-1.5-0.2C-259.2,299.1-259.6,298.1-259.9,297.3z"/>
</g>
</svg>
