<?xml version="1.0" encoding="utf-8"?>
<!-- Generator: Adobe Illustrator 19.1.0, SVG Export Plug-In . SVG Version: 6.00 Build 0)  -->
<svg version="1.1" id="Layer_1" xmlns="http://www.w3.org/2000/svg" xmlns:xlink="http://www.w3.org/1999/xlink" x="0px" y="0px"
	 viewBox="37.4 517.5 165 165" style="enable-background:new 37.4 517.5 165 165;" xml:space="preserve">
<style type="text/css">
	.st0{fill:#D31F26;}
	.st1{fill:none;}
	.st2{fill:#BCBEC0;}
	.st3{fill:#FFFFFF;}
</style>
<path class="st0" d="M119.9,530.9C158,530.9,189,562,189,600s-31,69.1-69.1,69.1s-69.1-31-69.1-69.1
	C50.8,561.9,81.8,530.9,119.9,530.9z"/>
<path class="st1" d="M119.9,669.1C158,669.1,189,638,189,600s-31-69.1-69.1-69.1s-69.1,31-69.1,69.1S81.8,669.1,119.9,669.1z"/>
<path class="st2" d="M119.9,517.5c-45.5,0-82.5,37-82.5,82.5s37,82.5,82.5,82.5s82.5-37,82.5-82.5S165.4,517.5,119.9,517.5z
	 M119.9,524.4c41.6,0,75.6,34,75.6,75.6s-34,75.6-75.6,75.6s-75.6-34-75.6-75.6C44.3,558.4,78.3,524.4,119.9,524.4z"/>
<g>
	<path class="st3" d="M126.7,654c-8.3-0.2-15.3-2.9-21.3-8c-3-2.5-5.5-5.5-7.7-8.7c-0.6-0.8-0.5-1.3,0.3-2
		c7.9-6.1,11.6-18.4,8.1-27.5c-2.1-5.4-4.7-10.6-7.8-15.4c-0.8-1.3-1-2.3-0.2-3.6c5-9.8,10.9-19.1,17.2-28.2c3.2-4.5,6.4-9,9.8-13.3
		c0.2-0.2,0.4-0.5,0.6-0.7c0.5-0.7,0.9-0.7,1.5,0c4.8,6.3,9.4,12.7,13.9,19.2c5,7.5,9.8,15.2,13.8,23.2c3.1,6.3,6,12.7,7,19.7
		c0.8,5.6,0.1,11.1-1.4,16.6c-1.4,5.1-3.6,9.8-6.7,14c-5.9,7.9-13.5,13.1-23.4,14.5C128.9,653.9,127.6,653.9,126.7,654z"/>
	<path class="st3" d="M66.4,615.3c-0.1-4.1,1.4-7.7,3.1-11.3c3.9-8.2,9.1-15.6,14.6-22.8c0.6-0.8,1.1-0.8,1.7,0
		c5.3,7,10.4,14.2,14.3,22.2c1.9,4,3.7,8.1,3.3,12.6c-0.6,8.2-4,14.7-11.5,18.5c-5.8,3-13.3,1.9-18.2-2.6
		C69,627.6,66.6,621.9,66.4,615.3z"/>
	<path class="st3" d="M160.6,593c-2.6-6.1-5.8-11.9-9.2-17.6c-2-3.3-4-6.6-6.1-9.8c-0.5-0.8-0.5-1.3-0.1-2.1
		c3.1-5.4,6.7-10.4,10.6-15.3c0.5-0.6,0.9-0.8,1.4-0.1c5.1,6.4,9.8,13.1,13.4,20.5c1.7,3.6,3.1,7.3,2.6,11.3
		c-0.8,6.9-3.8,12.4-10.2,15.7c-0.5,0.3-1,0.7-1.5-0.2C161.4,594.8,160.9,593.8,160.6,593z"/>
</g>
</svg>
