<?xml version="1.0" encoding="utf-8"?>
<!-- Generator: Adobe Illustrator 19.1.0, SVG Export Plug-In . SVG Version: 6.00 Build 0)  -->
<svg version="1.1" id="Layer_1" xmlns="http://www.w3.org/2000/svg" xmlns:xlink="http://www.w3.org/1999/xlink" x="0px" y="0px"
	 viewBox="-582 584 34 34" style="enable-background:new -582 584 34 34;" xml:space="preserve">
<style type="text/css">
	.st0{fill:none;}
	.st1{fill:#D50000;}
</style>
<g>
	<path class="st0" d="M-901.1,688.6h3.2v-3.8c0-0.3,0-0.4,0.1-0.5c0.2-0.1,0.4-0.2,0.5-0.2h2.1v-3.7c-1.7,1.3-5,1.9-8.1,1.9
		c-3.1,0-6.4-0.7-8.1-1.9v6l0.2-0.5h0.2c0.9,0.2,1.9,0.4,2.8,0.5c-0.7-1-1.3-2.1-1.9-3.1l-0.3-0.6l0.8,0.1c2.2,0.3,4.4,0.7,6.5,0.8
		h0.2v0.2c0.4,2.7,0.7,5.5,1,8.2v-2.6C-901.9,689-901.5,688.6-901.1,688.6z"/>
	<path class="st0" d="M-910,697.8c0.7,0.3,1.7,0.7,3,0.9h0.1v-2.3c-0.9-0.1-1.8-0.2-2.6-0.3C-909.7,696.6-909.9,697.2-910,697.8z"/>
	<path class="st0" d="M-909.3,683.4c0.7,1,1.3,2.1,2,3l0.3,0.6l-0.6-0.1c-1.1-0.1-2.3-0.4-3.3-0.6l-0.2,0.5
		c-0.1,0.2-0.1,0.4-0.2,0.6v7.4c0,2.3,0.2,2.7,0.8,3c0.3-0.6,0.4-1.3,0.6-1.9l0.1-0.2h0.2c1,0.1,2,0.2,3,0.3h0.2v2.8
		c0.5,0,0.9,0.1,1.5,0.1c1-0.1,1.8-0.2,2.7-0.3c0-4.7-0.7-9.5-1.4-14.5C-905.5,684-907.3,683.7-909.3,683.4z M-906.6,693.2h-0.3
		c-0.7,0-1.4-0.1-2.1-0.1h-0.3l0.7-1.9c0.4-1.3,0.8-2.7,1.3-4.1l0.6,0.1v1.3c0,1.5,0.1,2.9,0.1,4.4V693.2z"/>
	<path class="st0" d="M-908.2,691.4l-0.3,0.9c0.4,0.1,0.9,0.1,1.2,0.2c0-1.3-0.1-2.4-0.1-3.7C-907.6,689.8-908,690.6-908.2,691.4z"
		/>
	<path class="st0" d="M-903.5,677.8c3.2,0,5.3-0.9,5.3-1.5v-3c-1.2,0.7-3.3,1-5.3,1c-1.9,0-4-0.3-5.3-1v2.6c0,0.1,0,0.1,0,0.2v0.2
		C-908.8,676.8-906.9,677.8-903.5,677.8z"/>
	<path class="st0" d="M-903.5,680.8c5,0,8.1-1.6,8.1-2.6c0-0.4-0.4-0.9-1.6-1.4c-0.6,1.5-3.5,2.3-6.5,2.3s-5.9-0.8-6.5-2.3
		c-0.9,0.5-1.5,1.1-1.6,1.4C-911.6,679.2-908.4,680.8-903.5,680.8z"/>
	<path class="st0" d="M-903.4,673.1c3.2,0,5.3-0.9,5.3-1.5c0-0.5-1.9-1.5-5.3-1.5c-3.3,0-5.4,1-5.3,1.5
		C-908.7,672.1-906.8,673.1-903.4,673.1z"/>
	<polygon class="st0" points="-884.4,674.5 -887.2,674.5 -887.2,677.4 -890.1,677.4 -890.1,680.2 -887.2,680.2 -887.2,683.1 
		-884.4,683.1 -884.4,680.2 -881.5,680.2 -881.5,677.4 -884.4,677.4 	"/>
	<polygon class="st0" points="-893,688.7 -893,688.6 -893,685.4 -896.7,685.4 -896.7,688.6 -896.7,688.7 -896.7,689.4 -901.1,689.4 
		-901.1,692.9 -896.7,692.9 -896.7,693.7 -896.7,693.7 -896.7,697.1 -893,697.1 -892.9,697.1 -892.9,693.7 -892.9,692.9 
		-891.7,692.9 -888.6,692.9 -888.6,689.4 -893,689.4 	"/>
	<path class="st0" d="M-901.8,693.3c-0.1-0.1-0.1-0.3-0.1-0.4C-901.9,693.1-901.9,693.2-901.8,693.3z"/>
	<path class="st0" d="M-897.9,695.1v-1.4h-3.2c-0.3,0-0.6-0.1-0.7-0.4c0.1,1.9,0.3,3.8,0.3,5.6c1.4-0.1,2.8-0.4,3.8-0.7
		c-0.1-0.2-0.2-0.3-0.2-0.5V695.1z"/>
	<path class="st1" d="M-906.7,687.2l-0.6-0.1c-0.5,1.4-0.9,2.8-1.3,4.1l-0.7,1.9h0.3c0.7,0,1.4,0.1,2.1,0.1h0.3v-0.3
		c0-1.5-0.1-2.9-0.1-4.4V687.2z M-908.5,692.3l0.3-0.9c0.2-0.8,0.6-1.6,0.8-2.6c0,1.3,0.1,2.4,0.1,3.7
		C-907.6,692.4-908.1,692.4-908.5,692.3z"/>
	<path class="st1" d="M-888.6,688.6h-3.2v-3.8c0-0.3-0.2-0.7-0.6-0.7h-1.6v-5.6c0-0.8-0.5-1.9-2.7-2.7v-4.1c0-3.6-13.2-3.6-13.2,0
		v3.9c-1.9,0.6-2.8,1.5-2.8,2.7v11.6v0.4v0.4v0.3v0.3v0.9v4.6c0,0.6,0.4,1.2,0.9,1.6c0.3,0.1,0.8,0.5,1.5,0.7
		c1.9,0.8,4.5,1.3,7.1,1.3c3.4,0,6.5-0.7,8.1-1.9h2.7c0.1,0,0.3-0.1,0.5-0.2c0.1-0.1,0.2-0.2,0.2-0.5v-4.1h3.1
		c0.4,0,0.8-0.4,0.8-0.8v-3.5C-887.8,689-888.2,688.6-888.6,688.6z M-903.4,670.1c3.4,0,5.3,1,5.3,1.5c0,0.6-2.1,1.5-5.3,1.5
		c-3.4,0-5.3-1-5.3-1.5C-908.8,671.1-906.7,670.1-903.4,670.1z M-908.8,676.1c0-0.1,0-0.1,0-0.2v-2.6c1.3,0.7,3.4,1,5.3,1
		c2,0,4.1-0.3,5.3-1v3c0,0.6-2.1,1.5-5.3,1.5c-3.4,0-5.3-1-5.3-1.5V676.1z M-910,676.8c0.6,1.5,3.5,2.3,6.5,2.3s5.9-0.8,6.5-2.3
		c1.2,0.5,1.6,1,1.6,1.4c0,1-3.1,2.6-8.1,2.6c-4.9,0-8.1-1.6-8.1-2.6C-911.5,677.9-910.9,677.3-910,676.8z M-906.9,698.7h-0.1
		c-1.3-0.2-2.3-0.6-3-0.9c0.1-0.6,0.3-1.2,0.5-1.7c0.8,0.1,1.7,0.2,2.6,0.3V698.7z M-904.9,698.9c-0.6,0-1-0.1-1.5-0.1V696h-0.2
		c-1-0.1-2-0.2-3-0.3h-0.2l-0.1,0.2c-0.2,0.6-0.3,1.3-0.6,1.9c-0.6-0.3-0.8-0.7-0.8-3v-7.4c0.1-0.2,0.1-0.4,0.2-0.6l0.2-0.5
		c1,0.2,2.2,0.5,3.3,0.6l0.6,0.1l-0.3-0.6c-0.7-0.9-1.3-2-2-3c2,0.3,3.8,0.6,5.7,0.7c0.7,5,1.4,9.8,1.4,14.5
		C-903.1,698.7-903.9,698.8-904.9,698.9z M-901.9,692c-0.3-2.7-0.6-5.5-1-8.2v-0.2h-0.2c-2.1-0.1-4.3-0.5-6.5-0.8l-0.8-0.1l0.3,0.6
		c0.6,1,1.2,2.1,1.9,3.1c-0.9-0.1-1.9-0.3-2.8-0.5h-0.2l-0.2,0.5v-6c1.7,1.2,5,1.9,8.1,1.9c3.1,0,6.4-0.6,8.1-1.9v3.7h-2.1
		c-0.1,0-0.3,0.1-0.5,0.2c-0.1,0.1-0.1,0.2-0.1,0.5v3.8h-3.2c-0.4,0-0.8,0.4-0.8,0.8V692z M-901.5,698.9c0-1.8-0.2-3.7-0.3-5.6
		c-0.1-0.1-0.1-0.2-0.1-0.4c0,0.1,0,0.3,0.1,0.4c0.1,0.3,0.4,0.4,0.7,0.4h3.2v1.4v2.6c0,0.2,0.1,0.3,0.2,0.5
		C-898.7,698.5-900.1,698.8-901.5,698.9z M-888.6,692.9h-3.1h-1.2v0.8v3.4h-0.1h-3.7v-3.4h0v-0.8h-4.4v-3.5h4.4v-0.7v-0.1v-3.2h3.7
		v3.2v0.1v0.7h4.4V692.9z"/>
	<path class="st1" d="M-881.5,676.7h-2.1v-2.1c0-0.5-0.4-0.8-0.8-0.8h-2.8c-0.4,0-0.8,0.3-0.8,0.8v2.1h-2.1c-0.4,0-0.8,0.3-0.8,0.8
		v2.8c0,0.4,0.3,0.8,0.8,0.8h2.1v2.1c0,0.4,0.3,0.8,0.8,0.8h2.8c0.4,0,0.8-0.3,0.8-0.8v-2.1h2.1c0.4,0,0.8-0.3,0.8-0.8v-2.8
		C-880.7,677.1-881,676.7-881.5,676.7z M-881.5,680.2h-2.9v2.9h-2.8v-2.9h-2.9v-2.8h2.9v-2.9h2.8v2.9h2.9V680.2z"/>
</g>
</svg>
