<?xml version="1.0" encoding="utf-8"?>
<!-- Generator: Adobe Illustrator 19.1.0, SVG Export Plug-In . SVG Version: 6.00 Build 0)  -->
<svg version="1.1" id="Layer_1" xmlns="http://www.w3.org/2000/svg" xmlns:xlink="http://www.w3.org/1999/xlink" x="0px" y="0px"
	 viewBox="0 0 34 34" style="enable-background:new 0 0 34 34;" xml:space="preserve">
<style type="text/css">
	.st0{fill:#D50000;}
</style>
<g>
	<path class="st0" d="M13,29.9H9.9v-19c0-4.8,3.7-6.8,7.2-6.8c4,0,6.6,2,6.6,5.4c0,2.7-2.1,4.2-4.2,4.6c1.9,0.2,4.6,1.8,4.6,5.2
		c0,3.2-2.7,5.5-6.1,5.5c-2.2,0-3.9-0.9-5-2.3V29.9z M13,20c0.8,1.1,2.2,1.9,4,1.9c2.5,0,3.9-1.3,3.9-3.2c0-2.1-1.7-3.1-4-3.1h-1.1
		v-2.8h1c2.1,0,3.6-1,3.6-2.9c0-1.9-1.5-3-3.3-3c-2.2,0-4,1.4-4,4V20z"/>
</g>
<path class="st0" d="M17,1c8.8,0,16,7.2,16,16s-7.2,16-16,16S1,25.8,1,17S8.2,1,17,1 M17,0C7.6,0,0,7.6,0,17s7.6,17,17,17
	s17-7.6,17-17S26.4,0,17,0L17,0z"/>
</svg>
