<?xml version="1.0" encoding="utf-8"?>
<!-- Generator: Adobe Illustrator 19.1.0, SVG Export Plug-In . SVG Version: 6.00 Build 0)  -->
<svg version="1.1" id="Layer_1" xmlns="http://www.w3.org/2000/svg" xmlns:xlink="http://www.w3.org/1999/xlink" x="0px" y="0px"
	 viewBox="0 0 34 34" style="enable-background:new 0 0 34 34;" xml:space="preserve">
<style type="text/css">
	.st0{fill-rule:evenodd;clip-rule:evenodd;fill:#D50000;}
	.st1{fill:#D50000;}
</style>
<path class="st0" d="M23.6,1.8c0,0,0.9-1.6,3.8-1.7c2.8-0.2,2.8,3.4,2.8,3.6c0,0.2-0.3,2.1-0.5,2.8c-0.2,0.7,0.5,2.7,0.5,2.7
	s-2.2-0.9-2-3.3c0.1-0.4,0.2-0.6,0.6-1.9c0.5-1.3-0.1-2.9-1.2-2.8c-1.2,0.1-2.4,0.8-3.1,1.6C24.5,2.7,23.9,2,23.6,1.8L23.6,1.8z"/>
<path class="st0" d="M21.3,1.8c0,0-6-1.3-10.4,3.4c-4.5,4.6-4.1,5-4.1,5S14.8,2.1,21.3,1.8L21.3,1.8z"/>
<path class="st0" d="M24.8,3.7c0,0,3,2.6,2,8.6c-1,6-4.7,8.5-4.7,8.5S28,10.8,24.8,3.7L24.8,3.7z"/>
<path class="st0" d="M20.1,3.1c0,0-3.4-0.1-9.8,5.5C3.8,14.1,3.9,16,3.7,19.1c-0.2,3,0,7.4,0,7.4s-0.5-8.1,5.5-12.7
	c6.1-4.6,6.7-4.2,6.7-4.2s0.7-1.2,1.7-1.1c0,0-2.3-1.1-1.4-3.3c1-2.1,3.1-1.2,3.1-1.2l0.5,0.2C19.9,4.2,20.1,2.9,20.1,3.1L20.1,3.1z
	"/>
<path class="st0" d="M24.3,5.6c0,0,1,5.7-1.7,11.2c-2.7,5.5-8.2,9.6-8.2,9.6s-3.9,3.1-4.4,3.1c0,0,5.2-5.4,6.3-8.2
	c0,0,1.3-0.1,1.7-1.2c0.4-1.1,0-2,0-2s1.5-3.5,1.5-5.4c0,0,0.9-0.7,1-1.6c0-1-0.3-1.4-0.5-1.7l0-1.3c0,0,1.1-0.7,0.9-2.1
	C20.9,5.9,22.3,7.2,24.3,5.6L24.3,5.6z"/>
<path class="st0" d="M12.8,12.7c0,0-4.8,2.9-6.9,7.3C3.9,24.5,4.6,34,4.6,34s0.5-1.8,1.5-2.4c1-0.5,5.2-5,5.8-6.2c0,0-2.2-1-2-2.5
	c0.2-1.5,0.9-2.3,2.3-2.4c1.4-0.2,2.3,1.2,2.3,1.2l0.1-0.4c0,0-1.4-0.6-1.4-2.3c0.1-1.7,1.2-2,1.2-2s-1.7-0.3-2.1-1.3
	C12,14.7,12,13.8,12.8,12.7L12.8,12.7z"/>
<path class="st0" d="M15.7,11.1l-2,1.1c0,0,1.2-0.4,2.1,0.2c0.9,0.6,1.3,1.6,1.2,2.5c-0.2,1-0.9,1.5-1.2,1.7c0,0,1,0.1,1.1,0.3
	c0,0,0.9-2.1,1.1-3.5C18,13.3,15.7,13,15.7,11.1L15.7,11.1z"/>
<g>
	<path class="st1" d="M22.2,2.2c0.8,0,1.5,0.7,1.5,1.5s-0.7,1.5-1.5,1.5c-0.8,0-1.5-0.7-1.5-1.5S21.4,2.2,22.2,2.2 M22.2,2
		c-1,0-1.8,0.8-1.8,1.8s0.8,1.8,1.8,1.8S24,4.7,24,3.7S23.2,2,22.2,2L22.2,2z"/>
</g>
<g>
	<g>
		<path class="st1" d="M18.3,4.4c0.8,0,1.5,0.7,1.5,1.5s-0.7,1.5-1.5,1.5c-0.8,0-1.5-0.7-1.5-1.5S17.5,4.4,18.3,4.4 M18.3,4.2
			c-1,0-1.8,0.8-1.8,1.8s0.8,1.8,1.8,1.8s1.8-0.8,1.8-1.8S19.3,4.2,18.3,4.2L18.3,4.2z"/>
	</g>
	<g>
		<path class="st1" d="M18,9.1c0.8,0,1.5,0.7,1.5,1.5c0,0.8-0.7,1.5-1.5,1.5c-0.8,0-1.5-0.7-1.5-1.5C16.5,9.8,17.1,9.1,18,9.1
			 M18,8.9c-1,0-1.8,0.8-1.8,1.8c0,1,0.8,1.8,1.8,1.8s1.8-0.8,1.8-1.8C19.7,9.7,18.9,8.9,18,8.9L18,8.9z"/>
	</g>
</g>
<g>
	<g>
		<path class="st1" d="M14.4,12.7c0.8,0,1.5,0.7,1.5,1.5c0,0.8-0.7,1.5-1.5,1.5s-1.5-0.7-1.5-1.5C12.9,13.4,13.6,12.7,14.4,12.7
			 M14.4,12.5c-1,0-1.8,0.8-1.8,1.8c0,1,0.8,1.8,1.8,1.8s1.8-0.8,1.8-1.8C16.1,13.3,15.4,12.5,14.4,12.5L14.4,12.5z"/>
	</g>
	<g>
		<path class="st1" d="M15.7,17.3c0.8,0,1.5,0.7,1.5,1.5s-0.7,1.5-1.5,1.5s-1.5-0.7-1.5-1.5S14.8,17.3,15.7,17.3 M15.7,17.1
			c-1,0-1.8,0.8-1.8,1.8s0.8,1.8,1.8,1.8c1,0,1.8-0.8,1.8-1.8S16.6,17.1,15.7,17.1L15.7,17.1z"/>
	</g>
</g>
<g>
	<path class="st1" d="M12.3,21.2c0.8,0,1.5,0.7,1.5,1.5c0,0.8-0.7,1.5-1.5,1.5c-0.8,0-1.5-0.7-1.5-1.5
		C10.8,21.8,11.4,21.2,12.3,21.2 M12.3,20.9c-1,0-1.8,0.8-1.8,1.8s0.8,1.8,1.8,1.8c1,0,1.8-0.8,1.8-1.8S13.2,20.9,12.3,20.9
		L12.3,20.9z"/>
</g>
</svg>
