<?xml version="1.0" encoding="utf-8"?>
<!-- Generator: Adobe Illustrator 19.1.0, SVG Export Plug-In . SVG Version: 6.00 Build 0)  -->
<svg version="1.1" id="Layer_1" xmlns="http://www.w3.org/2000/svg" xmlns:xlink="http://www.w3.org/1999/xlink" x="0px" y="0px"
	 viewBox="-1494.7 1253 32 31.4" style="enable-background:new -1494.7 1253 32 31.4;" xml:space="preserve">
<style type="text/css">
	.st0{fill:none;}
	.st1{fill:#D50000;}
</style>
<g>
	<path class="st0" d="M-1483.1,1272.6h3.2v-3.8c0-0.3,0-0.4,0.1-0.5c0.2-0.1,0.4-0.2,0.5-0.2h2.1v-3.7c-1.7,1.3-5,1.9-8.1,1.9
		c-3.1,0-6.4-0.7-8.1-1.9v6l0.2-0.5h0.2c0.9,0.2,1.9,0.4,2.8,0.5c-0.7-1-1.3-2.1-1.9-3.1l-0.3-0.6l0.8,0.1c2.2,0.3,4.4,0.7,6.5,0.8
		h0.2v0.2c0.4,2.7,0.7,5.5,1,8.2v-2.6C-1483.9,1273-1483.5,1272.6-1483.1,1272.6z"/>
	<path class="st0" d="M-1492,1281.8c0.7,0.3,1.7,0.7,3,0.9h0.1v-2.3c-0.9-0.1-1.8-0.2-2.6-0.3
		C-1491.7,1280.6-1491.9,1281.2-1492,1281.8z"/>
	<path class="st0" d="M-1491.3,1267.4c0.7,1,1.3,2.1,2,3l0.3,0.6l-0.6-0.1c-1.1-0.1-2.3-0.4-3.3-0.6l-0.2,0.5
		c-0.1,0.2-0.1,0.4-0.2,0.6v7.4c0,2.3,0.2,2.7,0.8,3c0.3-0.6,0.4-1.3,0.6-1.9l0.1-0.2h0.2c1,0.1,2,0.2,3,0.3h0.2v2.8
		c0.5,0,0.9,0.1,1.5,0.1c1-0.1,1.8-0.2,2.7-0.3c0-4.7-0.7-9.5-1.4-14.5C-1487.5,1268-1489.3,1267.7-1491.3,1267.4z M-1488.6,1277.2
		h-0.3c-0.7,0-1.4-0.1-2.1-0.1h-0.3l0.7-1.9c0.4-1.3,0.8-2.7,1.3-4.1l0.6,0.1v1.3c0,1.5,0.1,2.9,0.1,4.4V1277.2z"/>
	<path class="st0" d="M-1490.2,1275.4l-0.3,0.9c0.4,0.1,0.9,0.1,1.2,0.2c0-1.3-0.1-2.4-0.1-3.7
		C-1489.6,1273.8-1490,1274.6-1490.2,1275.4z"/>
	<path class="st0" d="M-1485.5,1261.8c3.2,0,5.3-0.9,5.3-1.5v-3c-1.2,0.7-3.3,1-5.3,1c-1.9,0-4-0.3-5.3-1v2.6c0,0.1,0,0.1,0,0.2v0.2
		C-1490.8,1260.8-1488.9,1261.8-1485.5,1261.8z"/>
	<path class="st0" d="M-1485.5,1264.8c5,0,8.1-1.6,8.1-2.6c0-0.4-0.4-0.9-1.6-1.4c-0.6,1.5-3.5,2.3-6.5,2.3s-5.9-0.8-6.5-2.3
		c-0.9,0.5-1.5,1.1-1.6,1.4C-1493.6,1263.2-1490.4,1264.8-1485.5,1264.8z"/>
	<path class="st0" d="M-1485.4,1257.1c3.2,0,5.3-0.9,5.3-1.5c0-0.5-1.9-1.5-5.3-1.5c-3.3,0-5.4,1-5.3,1.5
		C-1490.7,1256.1-1488.8,1257.1-1485.4,1257.1z"/>
	<polygon class="st0" points="-1466.4,1258.5 -1469.2,1258.5 -1469.2,1261.4 -1472.1,1261.4 -1472.1,1264.2 -1469.2,1264.2 
		-1469.2,1267.1 -1466.4,1267.1 -1466.4,1264.2 -1463.5,1264.2 -1463.5,1261.4 -1466.4,1261.4 	"/>
	<polygon class="st0" points="-1475,1272.7 -1475,1272.6 -1475,1269.4 -1478.7,1269.4 -1478.7,1272.6 -1478.7,1272.7 
		-1478.7,1273.4 -1483.1,1273.4 -1483.1,1276.9 -1478.7,1276.9 -1478.7,1277.7 -1478.7,1277.7 -1478.7,1281.1 -1475,1281.1 
		-1474.9,1281.1 -1474.9,1277.7 -1474.9,1276.9 -1473.7,1276.9 -1470.6,1276.9 -1470.6,1273.4 -1475,1273.4 	"/>
	<path class="st0" d="M-1483.8,1277.3c-0.1-0.1-0.1-0.3-0.1-0.4C-1483.9,1277.1-1483.9,1277.2-1483.8,1277.3z"/>
	<path class="st0" d="M-1479.9,1279.1v-1.4h-3.2c-0.3,0-0.6-0.1-0.7-0.4c0.1,1.9,0.3,3.8,0.3,5.6c1.4-0.1,2.8-0.4,3.8-0.7
		c-0.1-0.2-0.2-0.3-0.2-0.5L-1479.9,1279.1L-1479.9,1279.1z"/>
	<path class="st1" d="M-1488.7,1271.2l-0.6-0.1c-0.5,1.4-0.9,2.8-1.3,4.1l-0.7,1.9h0.3c0.7,0,1.4,0.1,2.1,0.1h0.3v-0.3
		c0-1.5-0.1-2.9-0.1-4.4V1271.2z M-1490.5,1276.3l0.3-0.9c0.2-0.8,0.6-1.6,0.8-2.6c0,1.3,0.1,2.4,0.1,3.7
		C-1489.6,1276.4-1490.1,1276.4-1490.5,1276.3z"/>
	<path class="st1" d="M-1470.6,1272.6h-3.2v-3.8c0-0.3-0.2-0.7-0.6-0.7h-1.6v-5.6c0-0.8-0.5-1.9-2.7-2.7v-4.1c0-3.6-13.2-3.6-13.2,0
		v3.9c-1.9,0.6-2.8,1.5-2.8,2.7v11.6v0.4v0.4v0.3v0.3v0.9v4.6c0,0.6,0.4,1.2,0.9,1.6c0.3,0.1,0.8,0.5,1.5,0.7
		c1.9,0.8,4.5,1.3,7.1,1.3c3.4,0,6.5-0.7,8.1-1.9h2.7c0.1,0,0.3-0.1,0.5-0.2c0.1-0.1,0.2-0.2,0.2-0.5v-4.1h3.1
		c0.4,0,0.8-0.4,0.8-0.8v-3.5C-1469.8,1273-1470.2,1272.6-1470.6,1272.6z M-1485.4,1254.1c3.4,0,5.3,1,5.3,1.5
		c0,0.6-2.1,1.5-5.3,1.5c-3.4,0-5.3-1-5.3-1.5C-1490.8,1255.1-1488.7,1254.1-1485.4,1254.1z M-1490.8,1260.1c0-0.1,0-0.1,0-0.2v-2.6
		c1.3,0.7,3.4,1,5.3,1c2,0,4.1-0.3,5.3-1v3c0,0.6-2.1,1.5-5.3,1.5c-3.4,0-5.3-1-5.3-1.5V1260.1z M-1492,1260.8
		c0.6,1.5,3.5,2.3,6.5,2.3s5.9-0.8,6.5-2.3c1.2,0.5,1.6,1,1.6,1.4c0,1-3.1,2.6-8.1,2.6c-4.9,0-8.1-1.6-8.1-2.6
		C-1493.5,1261.9-1492.9,1261.3-1492,1260.8z M-1488.9,1282.7L-1488.9,1282.7c-1.4-0.2-2.4-0.6-3.1-0.9c0.1-0.6,0.3-1.2,0.5-1.7
		c0.8,0.1,1.7,0.2,2.6,0.3V1282.7z M-1486.9,1282.9c-0.6,0-1-0.1-1.5-0.1v-2.8h-0.2c-1-0.1-2-0.2-3-0.3h-0.2l-0.1,0.2
		c-0.2,0.6-0.3,1.3-0.6,1.9c-0.6-0.3-0.8-0.7-0.8-3v-7.4c0.1-0.2,0.1-0.4,0.2-0.6l0.2-0.5c1,0.2,2.2,0.5,3.3,0.6l0.6,0.1l-0.3-0.6
		c-0.7-0.9-1.3-2-2-3c2,0.3,3.8,0.6,5.7,0.7c0.7,5,1.4,9.8,1.4,14.5C-1485.1,1282.7-1485.9,1282.8-1486.9,1282.9z M-1483.9,1276
		c-0.3-2.7-0.6-5.5-1-8.2v-0.2h-0.2c-2.1-0.1-4.3-0.5-6.5-0.8l-0.8-0.1l0.3,0.6c0.6,1,1.2,2.1,1.9,3.1c-0.9-0.1-1.9-0.3-2.8-0.5
		h-0.2l-0.2,0.5v-6c1.7,1.2,5,1.9,8.1,1.9s6.4-0.6,8.1-1.9v3.7h-2.1c-0.1,0-0.3,0.1-0.5,0.2c-0.1,0.1-0.1,0.2-0.1,0.5v3.8h-3.2
		c-0.4,0-0.8,0.4-0.8,0.8V1276z M-1483.5,1282.9c0-1.8-0.2-3.7-0.3-5.6c-0.1-0.1-0.1-0.2-0.1-0.4c0,0.1,0,0.3,0.1,0.4
		c0.1,0.3,0.4,0.4,0.7,0.4h3.2v1.4v2.6c0,0.2,0.1,0.3,0.2,0.5C-1480.7,1282.5-1482.1,1282.8-1483.5,1282.9z M-1470.6,1276.9h-3.1
		h-1.2v0.8v3.4h-0.1h-3.7v-3.4l0,0v-0.8h-4.4v-3.5h4.4v-0.7v-0.1v-3.2h3.7v3.2v0.1v0.7h4.4L-1470.6,1276.9L-1470.6,1276.9z"/>
	<path class="st1" d="M-1463.5,1260.7h-2.1v-2.1c0-0.5-0.4-0.8-0.8-0.8h-2.8c-0.4,0-0.8,0.3-0.8,0.8v2.1h-2.1
		c-0.4,0-0.8,0.3-0.8,0.8v2.8c0,0.4,0.3,0.8,0.8,0.8h2.1v2.1c0,0.4,0.3,0.8,0.8,0.8h2.8c0.4,0,0.8-0.3,0.8-0.8v-2.1h2.1
		c0.4,0,0.8-0.3,0.8-0.8v-2.8C-1462.7,1261.1-1463,1260.7-1463.5,1260.7z M-1463.5,1264.2h-2.9v2.9h-2.8v-2.9h-2.9v-2.8h2.9v-2.9
		h2.8v2.9h2.9V1264.2z"/>
</g>
</svg>
