<?xml version="1.0" encoding="utf-8"?>
<!-- Generator: Adobe Illustrator 19.1.0, SVG Export Plug-In . SVG Version: 6.00 Build 0)  -->
<svg version="1.1" id="Capa_1" xmlns="http://www.w3.org/2000/svg" xmlns:xlink="http://www.w3.org/1999/xlink" x="0px" y="0px"
	 viewBox="81 -80.6 195.6 195.6" style="enable-background:new 81 -80.6 195.6 195.6;" xml:space="preserve">
<style type="text/css">
	.st0{fill:#D50000;}
</style>
<g>
	<g>
		<path class="st0" d="M221.1,2.5c-6.3-5.1-14.4-7.8-23.6-7.8c-2.1,0-4.2,0.1-6.4,0.4c-1.4-6.8-4.1-13-7-19.5
			c-5.8-13.4-14.3-24.8-24.5-33.1c-10.2-8.3-21.2-12.6-31.8-12.6c-4.9,0-9.7,1-14,2.9c-11.8,5.2-20,16.6-23,32.1
			C87.9-20,90.2-2.8,97.3,13.5c6.7,15.3,17.4,28.6,29.7,36.8c-8.7,23.1-5.4,45,8.9,56.7c6.4,5.3,14.7,8,23.9,8l0,0
			c18.9,0,40.1-11.6,55.4-30.3c11.2-13.8,18.1-29.8,19.4-45.1C235.9,23.8,231.1,10.7,221.1,2.5z M151.5,14.7
			c-1.7-2.4-3.5-4.6-5.7-6.9c0,0-0.1-0.1-0.1-0.1c-23-21.8-26.4-35.3-25.2-42.8c0.3-1.6,0.7-3.1,1.4-4.3c-0.1,3.1,0.3,5.9,1.3,8.6
			c1.9,4.8,5.7,8.6,11.4,14.5c3.9,3.9,8.7,8.8,14.5,15.6C152.5,3,155,6.5,157,10C155.2,11.4,153.4,13,151.5,14.7z M103.5,10.8
			C90.1-19.8,95.9-52,116.4-61c3.5-1.5,7.3-2.3,11.3-2.3c18.8,0,39.5,17.1,50.2,41.6c2.8,6.4,5.2,12,6.5,18c-7.5,1.8-15,5.1-22,9.7
			c-2.2-3.7-4.8-7.3-8.3-11.3c-6-6.9-10.9-11.9-14.8-15.9c-11-11.2-12.7-12.9-9.4-27.1c0.3-1.3-0.1-2.6-1.1-3.4
			c-1-0.8-2.4-1-3.5-0.5c-0.4,0.2-9.6,4.5-11.5,15.7c-2.2,13.2,6.9,29.7,27.1,48.8c2.2,2.3,3.9,4.5,5.6,7c-1.6,1.7-3.3,3.4-4.8,5.3
			c-4.8,5.9-8.9,12.4-12.1,19.2C118.9,36.4,109.5,24.5,103.5,10.8z M210,80.4c-14,17.2-33.2,27.8-50.2,27.8
			c-7.6,0-14.4-2.3-19.6-6.5c-12.5-10.2-14.7-30.4-5.8-51.7c3.4-7.8,7.3-14.2,11.9-19.8c2.3-2.8,4.3-5.1,6.1-6.9
			c0.2-0.2,0.5-0.5,0.7-0.7c0,0,0.1-0.1,0.1-0.1c0.3-0.3,0.6-0.6,1-1c3.2-3.1,6.2-5.7,9.2-7.9c8.2-5.7,17.5-9.8,25.6-11.4l0,0
			c2.9-0.5,5.8-0.8,8.5-0.8c7.7,0,14.2,2.1,19.3,6.3C234.2,21.9,231.1,54.5,210,80.4z"/>
		<path class="st0" d="M185.1,22.7c-6.6,5.6-12.3,14.2-17.1,25.6c-2.1,5-3.8,9.7-5.3,14.8c-8.3,23.4-21.5,24.5-22,24.6
			c-1.5,0-2.8,1-3.2,2.5s0.2,3,1.5,3.8c0.2,0.1,5.3,3.2,12.5,3.2c9.5,0,22.9-5.3,33-30.3l1.5-3.8c11.6-28.9,14-34.9,33-39.6
			c1.4-0.3,2.4-1.5,2.5-2.8c0.2-1.4-0.5-2.7-1.7-3.4c-0.2-0.1-5.5-3-13.2-3C198.9,14.2,191.6,17.1,185.1,22.7z M179.8,60.6l-1.5,3.8
			c-6.9,17.1-16.1,26.1-26.7,26.1c0,0-0.1,0-0.1,0c5.7-3.8,12.6-11,17.6-25.1c0-0.1,0-0.1,0.1-0.2c1.4-4.9,3-9.4,5.1-14.2
			c4.4-10.4,9.5-18.2,15.3-23.1c4.9-4.2,10.3-6.5,16-6.8C193.2,27.1,189.1,37.5,179.8,60.6z"/>
		<path class="st0" d="M240.7-44.3c-2.9-2-5.4-3.7-7.6-5.1c-10.7-7.1-10.9-7.2-10.3-17c0.1-1.3-0.6-2.5-1.8-3.2
			c-1.2-0.6-2.6-0.5-3.6,0.3c-0.3,0.2-7.6,5.8-7,15c0.6,8.8,8.3,17.3,22.8,25.2c10.7,6.8,11.1,11.2,10.6,12.4s-0.1,2.8,1,3.8
			c1.4,1.3,3.6,0.4,4.2-0.1c0.2-0.2,5.8-4.4,5.7-11.6C254.5-31.4,249.8-37.9,240.7-44.3z M236.7-35c-0.1,0-0.1-0.1-0.2-0.1
			c-15.4-8.4-19-15.4-19.4-19.8c0-0.1,0-0.2,0-0.2c1.7,4.1,5.4,6.7,12.2,11.2c2.2,1.4,4.6,3.1,7.5,5.1c7.1,4.9,10.9,9.8,11.1,14
			C245.9-27.8,242.5-31.3,236.7-35z"/>
		<path class="st0" d="M258-60.7c-9-12.3-22.5-19.9-35.3-19.9c-6.2,0-11.9,1.8-16.5,5.2c-14.7,10.8-15.4,34.9-1.5,53.8
			c9,12.3,22.5,19.9,35.3,19.9h0c6.2,0,11.9-1.8,16.5-5.2c7.3-5.3,11.4-14,11.5-24.3C268.2-41.2,264.7-51.7,258-60.7z M252.6-12.3
			c-3.5,2.6-7.8,3.9-12.5,3.9h0c-10.6,0-22.1-6.6-29.8-17.2c-11.7-15.9-11.6-35.8,0.1-44.4c3.5-2.6,7.8-3.9,12.5-3.9
			c10.6,0,22.1,6.6,29.8,17.2c5.8,7.8,8.9,16.9,8.7,25.4C261.2-23.1,258.1-16.4,252.6-12.3z"/>
	</g>
</g>
</svg>
