<?xml version="1.0" encoding="utf-8"?>
<!-- Generator: Adobe Illustrator 19.1.0, SVG Export Plug-In . SVG Version: 6.00 Build 0)  -->
<svg version="1.1" id="Layer_1" xmlns="http://www.w3.org/2000/svg" xmlns:xlink="http://www.w3.org/1999/xlink" x="0px" y="0px"
	 viewBox="0 0 34 34" style="enable-background:new 0 0 34 34;" xml:space="preserve">
<style type="text/css">
	.st0{fill:#D50000;}
</style>
<g>
	<path class="st0" d="M34,18.3c0-0.3-0.2-0.5-0.5-0.5l-2.2,0l0-2.2c0-0.3-0.2-0.5-0.5-0.5c0,0,0,0,0,0l-4.3,0
		c-0.1,0-0.3,0.1-0.4,0.2c-0.1,0.1-0.2,0.2-0.2,0.4l0,3.9l-7.9,0l0-3.9c0-0.3-0.2-0.5-0.5-0.5l-1.4,0v-4.3c0-0.7-0.4-1.6-2.3-2.3
		V5.1c0-3.1-11.4-3.1-11.4,0v3.4C0.8,9,0,9.8,0,10.8v9.4v1.3c0,0,0,0,0,0c0.3-0.9,0.7-1.7,1.1-2.6c0.1-0.3,0.2-0.5,0.3-0.8l0.2-0.4
		c0.9,0.2,1.9,0.4,2.8,0.5l0.5,0.1l-0.3-0.5C4,17,3.5,16.1,2.9,15.2c1.7,0.3,3.3,0.5,4.9,0.6C8.4,20.1,9,24.2,9,28.3
		c-0.8,0.1-1.5,0.2-2.3,0.3c-0.5,0-0.9-0.1-1.3-0.1c0,0,0,0.1,0,0.1c0,0,0,0,0,0c0-0.1,0-0.1,0-0.1c0-0.8,0-1.5,0-2.3l0-0.2l-0.2,0
		c-0.9-0.1-1.7-0.2-2.6-0.3l-0.2,0l-0.1,0.2c-0.2,0.5-0.3,1.1-0.5,1.6c-0.5-0.3-0.7-0.6-0.7-0.9v-2.5v-1.7v-3.3
		c-0.4,0.9-0.7,1.8-1.1,2.6v4.9c0,0.5,0.3,1,0.7,1.4C1,28.1,1.4,28.4,2,28.6c1.6,0.7,3.9,1.1,6.1,1.1c2.9,0,5.6-0.6,7-1.6
		c0,0,0,0,0,0l2.5,0c0.1,0,0.3-0.1,0.4-0.2c0.1-0.1,0.2-0.2,0.2-0.4l0-3.9l7.9,0l0,3.9c0,0.3,0.2,0.5,0.5,0.5c0,0,0,0,0,0l4.3,0
		c0.1,0,0.3-0.1,0.4-0.2c0.1-0.1,0.2-0.2,0.2-0.4l0-2.2l2.2,0c0.1,0,0.3-0.1,0.4-0.2c0.1-0.1,0.2-0.2,0.2-0.4L34,18.3z M2.3,27.6
		c0.1-0.5,0.3-1,0.4-1.5c0.7,0.1,1.5,0.2,2.2,0.3c0,0.7,0,1.3,0,2C3.8,28.2,2.9,27.9,2.3,27.6z M8,3.7c2.9,0,4.6,0.9,4.6,1.3
		c0,0.5-1.8,1.3-4.6,1.3c-2.9,0-4.6-0.9-4.6-1.3C3.4,4.6,5.2,3.7,8,3.7z M3.4,8.9c0-0.1,0-0.1,0-0.2V6.5C4.5,7.1,6.3,7.4,8,7.4
		s3.5-0.3,4.6-0.9v2.6c0,0.5-1.8,1.3-4.6,1.3c-2.9,0-4.6-0.9-4.6-1.3V8.9z M2.4,9.5c0.5,1.3,3,2,5.6,2c2.6,0,5.1-0.7,5.6-2
		c1,0.4,1.4,0.9,1.4,1.2c0,0.9-2.7,2.2-7,2.2c-4.3,0-7-1.3-7-2.2C1.1,10.4,1.6,9.9,2.4,9.5z M12.7,15.6l0,2.2l-2.2,0
		c-0.3,0-0.5,0.2-0.5,0.5l0,6.4c0,0.1,0.1,0.3,0.2,0.4c0.1,0.1,0.2,0.2,0.4,0.2h0l2.2,0l0,2.2c0,0.2,0.1,0.3,0.2,0.4
		c-0.9,0.3-2.1,0.5-3.3,0.6l0,0c-0.1-4.2-0.6-8.6-1.2-13l0-0.2l-0.2,0c-1.8-0.1-3.7-0.4-5.6-0.7L2,14.5L2.3,15
		c0.5,0.9,1,1.8,1.6,2.7c-0.8-0.1-1.6-0.3-2.4-0.4l-0.2,0l-0.2,0.4v-0.8v-1.7v-2.7c1.5,1,4.3,1.6,7,1.6c2.7,0,5.5-0.5,7-1.6V15
		l-1.8,0c-0.1,0-0.3,0.1-0.4,0.2C12.7,15.3,12.7,15.4,12.7,15.6z M12.7,24.3l-1.7,0l0-5.4l1.7,0L12.7,24.3z M13.8,27l0-10.9l3.2,0
		L17,27L13.8,27z M18,22.6l0-2.1l7.9,0l0,2.1L18,22.6z M27,27l0-10.9l3.2,0l0,10.9L27,27z M31.2,24.2l0-5.4l1.7,0l0,5.4L31.2,24.2z"
		/>
	<path class="st0" d="M5,23.6l0.3,0l0-0.3c0-1.3-0.1-2.5-0.1-3.8l0-1.1l-0.5-0.1c-0.4,1.2-0.8,2.4-1.1,3.5L3,23.4l0.3,0
		C3.8,23.5,4.4,23.6,5,23.6z M3.9,22.1c0.2-0.7,0.5-1.4,0.7-2.2c0,1.1,0.1,2.1,0.1,3.2C4.4,23,4,23,3.7,22.9L3.9,22.1z"/>
</g>
</svg>
