<?xml version="1.0" encoding="utf-8"?>
<!-- Generator: Adobe Illustrator 19.1.0, SVG Export Plug-In . SVG Version: 6.00 Build 0)  -->
<svg version="1.1" id="Layer_1" xmlns="http://www.w3.org/2000/svg" xmlns:xlink="http://www.w3.org/1999/xlink" x="0px" y="0px"
	 viewBox="-332 84 34 34" style="enable-background:new -332 84 34 34;" xml:space="preserve">
<style type="text/css">
	.st0{fill:#D50000;}
</style>
<g>
	<path class="st0" d="M-298.3,104.2c-0.2-0.8-0.9-1.5-1.7-1.9c-0.4-0.4-1.3-0.5-1.9-0.4c-1.2,0.2-2.4,1.1-2.8,2.3
		c-0.2,0.7-0.2,1.5,0.1,2.1c-0.7,0.6-1.4,1.3-2.3,1.8c-0.8,0.5-1.7,1-2.6,1.6c-0.2-0.9-0.6-1.8-1.3-2.5c-1.3-1.2-3.3-1-4.9-0.4
		c-0.6-1.6-1.1-3.7-1.7-5.1c-1-2.4-2.4-4.8-3.3-7.3c1.1-0.3,2.1-0.8,2.9-1.5c0.8,0.8,1.6,1.6,2.3,2.4c0.3,0.4,0.7,0.8,1,1.3
		c-0.5,1.2-0.4,2.6,0.9,3.5c1.1,0.7,2.7,1,3.8,0.2c0.9-0.6,1.1-1.8,0.9-2.8c-0.2-1.1-0.7-2.1-1.6-2.6c-1-0.6-2.3-0.2-3.1,0.6
		c0,0,0,0,0,0c-0.2-0.2-0.5-0.4-0.7-0.6c-0.9-0.9-1.9-1.8-2.8-2.6c0.5-0.7,0.9-1.4,1-2.3c0.9-5.7-6.5-6.2-9.6-3.1
		c-2.7,2.7-0.8,7.5,2.6,7.8c0.4,0.1,0.9,0.1,1.4,0c0.1,0.3,0.2,0.5,0.3,0.8c0.7,2.3,1.7,4.6,2.7,6.8c0.7,1.8,1.3,3.5,1.8,5.3
		c-0.2,0.1-0.3,0.2-0.5,0.3c-0.3,0.2-0.5,0.5-0.7,0.7c-0.2,0.2-0.3,0.4-0.5,0.7c-1-0.3-2.1-0.5-3.1-0.8c-1-0.3-2.5-1.1-3.7-1.2
		c0.4-1.2,0.5-2.5-0.2-3.4c-0.6-0.8-1.5-1.1-2.4-0.9c-0.5-0.2-1.2-0.1-1.8,0.2c-1.1,0.7-1.6,2.2-1.4,3.4c0.4,2.2,2.9,3.9,4.7,2.3
		c0.2-0.2,0.4-0.4,0.6-0.7c1,0.7,2.7,1,3.7,1.4c0.9,0.3,1.9,0.8,2.9,1.1c-0.2,0.7-0.2,1.4-0.1,2.1c0.4,2.4,2.8,3.7,5.1,3.7
		c2.1,0,3.8-1.8,4.4-3.7c0.2-0.5,0.3-1,0.3-1.5c1.3-0.7,2.5-1.4,3.8-2.2c0.7-0.4,1.5-0.9,2.1-1.5c0.6,0.3,1.3,0.4,2,0.3
		C-299.7,107.6-297.6,106.2-298.3,104.2z M-312.2,114.3c0.1-0.2,0.2-0.3,0.3-0.5c0.3-0.2,0.5-0.5,0.7-0.8
		C-311.5,113.5-311.8,114-312.2,114.3z"/>
</g>
</svg>
