<?xml version="1.0" encoding="utf-8"?>
<!-- Generator: Adobe Illustrator 19.1.0, SVG Export Plug-In . SVG Version: 6.00 Build 0)  -->
<svg version="1.1" id="Layer_1" xmlns="http://www.w3.org/2000/svg" xmlns:xlink="http://www.w3.org/1999/xlink" x="0px" y="0px"
	 viewBox="-332 84 34 34" style="enable-background:new -332 84 34 34;" xml:space="preserve">
<style type="text/css">
	.st0{fill:#D50000;}
</style>
<path class="st0" d="M-319.2,95.6l-2-1.9c0.2-0.4,0.4-0.9,0.4-1.4c0-1.7-1.3-3-3-3s-3,1.3-3,3c0,1.7,1.3,3,3,3
	c0.6,0,1.1-0.2,1.6-0.5l2,1.9C-319.9,96.3-319.6,96-319.2,95.6z"/>
<path class="st0" d="M-310.6,95.4l2.7-4.5c0.3,0.1,0.5,0.1,0.8,0.1c1.7,0,3-1.3,3-3c0-1.7-1.3-3-3-3c-1.7,0-3,1.3-3,3
	c0,0.8,0.3,1.6,0.9,2.1l-2.7,4.5C-311.5,94.8-311,95.1-310.6,95.4z"/>
<path class="st0" d="M-301.3,99.2c-1.3,0-2.4,0.8-2.8,2l-3.7-0.4c0,0,0,0.1,0,0.1c0,0.5-0.1,1-0.2,1.4l3.7,0.4
	c0.2,1.4,1.5,2.5,3,2.5c1.7,0,3-1.3,3-3C-298.3,100.5-299.7,99.2-301.3,99.2z"/>
<path class="st0" d="M-311.7,111l-0.8-3.7c-0.5,0.2-1,0.3-1.5,0.3l0.8,3.7c-1,0.5-1.6,1.5-1.6,2.7c0,1.7,1.3,3,3,3c1.7,0,3-1.3,3-3
	C-308.8,112.4-310.1,111.1-311.7,111z"/>
<path class="st0" d="M-321.5,102.3l-4.7,1.6c-0.5-0.8-1.5-1.4-2.5-1.4c-1.7,0-3,1.3-3,3c0,1.7,1.3,3,3,3c1.7,0,3-1.3,3-3
	c0-0.1,0-0.1,0-0.2l4.7-1.6C-321.2,103.3-321.4,102.8-321.5,102.3z"/>
<path class="st0" d="M-314.8,97.7c1.7,0,3.2,1.4,3.2,3.2c0,1.7-1.4,3.2-3.2,3.2c-1.7,0-3.2-1.4-3.2-3.2
	C-317.9,99.1-316.5,97.7-314.8,97.7 M-314.8,95.7c-2.8,0-5.2,2.3-5.2,5.2s2.3,5.2,5.2,5.2c2.8,0,5.2-2.3,5.2-5.2
	S-311.9,95.7-314.8,95.7L-314.8,95.7z"/>
</svg>
