<?xml version="1.0" encoding="utf-8"?>
<!-- Generator: Adobe Illustrator 19.1.0, SVG Export Plug-In . SVG Version: 6.00 Build 0)  -->
<svg version="1.1" id="Layer_1" xmlns="http://www.w3.org/2000/svg" xmlns:xlink="http://www.w3.org/1999/xlink" x="0px" y="0px"
	 viewBox="0 0 34 34" style="enable-background:new 0 0 34 34;" xml:space="preserve">
<style type="text/css">
	.st0{fill:#D50000;}
</style>
<path color-rendering="auto" image-rendering="auto" shape-rendering="auto" color-interpolation="sRGB" class="st0" d="M13.9,0.1
	c-0.8,0-1.4,0.5-1.8,1.1C12,1.3,12,1.4,11.9,1.6h-4C7.8,1.3,7.6,1.2,7.4,1c-0.7-0.4-1.6-0.2-2,0.5C5.1,2,5.1,2.6,5.4,3L2.2,8.2
	c-0.5,0-1,0.3-1.3,0.7c-0.4,0.7-0.2,1.6,0.5,2c0.2,0.1,0.5,0.2,0.8,0.2l2.7,4.5c-0.3,0.4-0.5,0.9-0.5,1.4s0.2,1,0.5,1.4l-2.3,3.8
	c-0.1,0-0.3,0-0.4,0c-1.2,0-2.2,1-2.2,2.2c0,1.2,1,2.2,2.2,2.2c0.2,0,0.3,0,0.4,0l2.3,3.8c-0.3,0.4-0.5,0.9-0.5,1.4
	c0,1.2,1,2.2,2.2,2.2c1,0,1.8-0.6,2.1-1.5h3.2c0.3,0.9,1.1,1.5,2.1,1.5c1.2,0,2.2-1,2.2-2.2c0-0.5-0.2-1-0.5-1.4l2.3-3.8
	c0.1,0,0.3,0,0.4,0c1,0,1.8-0.6,2.1-1.5h4c0.3,0.5,0.8,0.7,1.3,0.7c0.8,0,1.5-0.7,1.5-1.5c0-0.3-0.1-0.5-0.2-0.7l2.7-4.5
	c0.1,0,0.3,0,0.4,0c1.2,0,2.2-1,2.2-2.2c0-1.2-1-2.2-2.2-2.2c-0.1,0-0.3,0-0.4,0l-2.7-4.5c0.1-0.2,0.2-0.5,0.2-0.7
	c0-0.8-0.7-1.5-1.5-1.5c-0.5,0-1,0.3-1.3,0.7h-4.8c-0.3-0.5-0.8-0.7-1.3-0.7c0,0,0,0,0,0l-2.7-4.5c0.1-0.1,0.1-0.2,0.2-0.3
	c0.6-1.1,0.2-2.4-0.8-3C14.8,0.2,14.4,0.1,13.9,0.1L13.9,0.1z M7.9,3.1h4c0.2,0.5,0.5,0.9,1,1.2c0.5,0.3,1,0.4,1.5,0.2L17.2,9
	C17.1,9.2,17,9.4,17,9.7c0,0.3,0.1,0.5,0.2,0.7l-2.7,4.5c-0.1,0-0.3,0-0.4,0c-1,0-1.8,0.6-2.1,1.5H8.7c-0.3-0.9-1.1-1.5-2.1-1.5
	c-0.2,0-0.3,0-0.4,0l-2.7-4.5c0.2-0.4,0.2-1,0-1.4l3.1-5.2C7.2,3.8,7.7,3.5,7.9,3.1L7.9,3.1z M19.7,10.4h4.8
	c0.3,0.5,0.8,0.7,1.3,0.7c0,0,0,0,0,0l2.7,4.5c-0.3,0.4-0.5,0.9-0.5,1.4c0,0.5,0.2,1,0.5,1.4L25.9,23c0,0,0,0,0,0
	c-0.5,0-1,0.3-1.3,0.7h-4c-0.3-0.9-1.1-1.5-2.1-1.5c-0.2,0-0.3,0-0.4,0l-2.3-3.8c0.3-0.4,0.5-0.9,0.5-1.4c0-0.5-0.2-1-0.5-1.4
	l2.7-4.5c0,0,0,0,0,0C19,11.2,19.5,10.9,19.7,10.4L19.7,10.4z M6.6,16.3c0.4,0,0.7,0.3,0.7,0.7s-0.3,0.7-0.7,0.7s-0.7-0.3-0.7-0.7
	S6.2,16.3,6.6,16.3z M14,16.3c0.4,0,0.7,0.3,0.7,0.7s-0.3,0.7-0.7,0.7c-0.4,0-0.7-0.3-0.7-0.7S13.6,16.3,14,16.3z M8.7,17.8h3.2
	c0.3,0.9,1.1,1.5,2.1,1.5c0.2,0,0.3,0,0.4,0l2.3,3.8c-0.3,0.4-0.5,0.9-0.5,1.4c0,0.5,0.2,1,0.5,1.4l-2.3,3.8c-0.1,0-0.3,0-0.4,0
	c-1,0-1.8,0.6-2.1,1.5H8.7c-0.3-0.9-1.1-1.5-2.1-1.5c-0.2,0-0.3,0-0.4,0l-2.3-3.8c0.3-0.4,0.5-0.9,0.5-1.4c0-0.5-0.2-1-0.5-1.4
	l2.3-3.8c0.1,0,0.3,0,0.4,0C7.6,19.3,8.4,18.7,8.7,17.8L8.7,17.8z M2.2,23.7c0.4,0,0.7,0.3,0.7,0.7s-0.3,0.7-0.7,0.7
	s-0.7-0.3-0.7-0.7C1.5,24.1,1.8,23.7,2.2,23.7z M18.5,23.7c0.4,0,0.7,0.3,0.7,0.7s-0.3,0.7-0.7,0.7c-0.4,0-0.7-0.3-0.7-0.7
	S18.1,23.7,18.5,23.7z M6.6,31.1c0.4,0,0.7,0.3,0.7,0.7c0,0.4-0.3,0.7-0.7,0.7s-0.7-0.3-0.7-0.7C5.9,31.4,6.2,31.1,6.6,31.1z
	 M14,31.1c0.4,0,0.7,0.3,0.7,0.7c0,0.4-0.3,0.7-0.7,0.7c-0.4,0-0.7-0.3-0.7-0.7C13.3,31.4,13.6,31.1,14,31.1z"/>
</svg>
