<?xml version="1.0" encoding="utf-8"?>
<!-- Generator: Adobe Illustrator 19.1.0, SVG Export Plug-In . SVG Version: 6.00 Build 0)  -->
<svg version="1.1" id="Layer_1" xmlns="http://www.w3.org/2000/svg" xmlns:xlink="http://www.w3.org/1999/xlink" x="0px" y="0px"
	 viewBox="0 0 34 34" style="enable-background:new 0 0 34 34;" xml:space="preserve">
<style type="text/css">
	.st0{fill:#D50000;}
</style>
<g>
	<path class="st0" d="M4.5,20.9c1.7,0,3.1-1.2,3.4-2.8l4.1,0.1c0.1,1,0.6,1.9,1.5,2.6l-2.4,5.3c-0.3-0.1-0.6-0.1-1-0.1
		c-2.2,0-4,1.8-4,4s1.8,4,4,4c2.2,0,4-1.8,4-4c0-1.3-0.7-2.5-1.7-3.2l2.4-5.2c1.7,0.5,3.7-0.2,4.6-1.9c0.3-0.5,0.4-1.1,0.5-1.7h6.1
		c0.3,1.9,2,3.3,3.9,3.3c2.2,0,4-1.8,4-4c0-2.2-1.8-4-4-4c-1.9,0-3.5,1.4-3.9,3.1h-6.3c-0.2-0.5-0.4-0.9-0.7-1.3l5.8-8.3
		C25.2,7,25.6,7.1,26,7.1c2,0,3.5-1.6,3.5-3.5C29.6,1.6,28,0,26,0c-2,0-3.5,1.6-3.5,3.5c0,1,0.4,1.9,1.1,2.5l-5.6,8.1
		c-0.9-0.5-1.9-0.6-2.8-0.4l-3.4-5.7c1.1-0.7,1.9-2,1.9-3.4c0-2.2-1.8-4-4-4s-4,1.8-4,4c0,2.2,1.8,4,4,4c0.2,0,0.5,0,0.7-0.1
		l3.5,5.8c-0.5,0.3-0.9,0.8-1.2,1.3c-0.2,0.3-0.3,0.6-0.4,1L8,16.6c-0.3-1.6-1.8-2.8-3.5-2.8c-2,0-3.5,1.6-3.5,3.5
		C1,19.3,2.6,20.9,4.5,20.9z M12.7,30c0,1.4-1.1,2.5-2.5,2.5c-1.4,0-2.5-1.1-2.5-2.5s1.1-2.5,2.5-2.5C11.6,27.5,12.7,28.6,12.7,30z
		 M30,14.9c1.4,0,2.5,1.1,2.5,2.5s-1.1,2.5-2.5,2.5c-1.4,0-2.5-1.1-2.5-2.5S28.6,14.9,30,14.9z M26,1.5c1.1,0,2,0.9,2,2
		c0,1.1-0.9,2-2,2c-1.1,0-2-0.9-2-2C24,2.4,24.9,1.5,26,1.5z M9.6,7.2c-1.4,0-2.5-1.1-2.5-2.5c0-1.4,1.1-2.5,2.5-2.5
		s2.5,1.1,2.5,2.5C12.1,6.1,11,7.2,9.6,7.2z M4.5,15.3c1.1,0,2,0.9,2,2c0,1.1-0.9,2-2,2c-1.1,0-2-0.9-2-2
		C2.5,16.3,3.4,15.3,4.5,15.3z"/>
</g>
</svg>
