<?xml version="1.0" encoding="utf-8"?>
<!-- Generator: Adobe Illustrator 19.1.0, SVG Export Plug-In . SVG Version: 6.00 Build 0)  -->
<svg version="1.1" id="Layer_1" xmlns="http://www.w3.org/2000/svg" xmlns:xlink="http://www.w3.org/1999/xlink" x="0px" y="0px"
	 viewBox="0 0 686.5 124.6" style="enable-background:new 0 0 686.5 124.6;" xml:space="preserve">
<style type="text/css">
	.st0{fill:#D50000;}
</style>
<g>
	<path d="M63.9,0c3.2,0,5.4,1.1,6.6,3.2c1.3,2.2,1.4,4.8,0.1,7.8l-8,19.9c-1.3,3-3.4,5.6-6.4,7.8C53.2,40.9,50.1,42,47,42H7.5
		c-3.2,0-5.3-1.1-6.6-3.2c-1.3-2.1-1.3-4.7-0.1-7.8l8-19.9c1.2-3.1,3.3-5.7,6.4-7.8C18.3,1.1,21.4,0,24.5,0H63.9z M46.5,31.5
		L55,10.4H25.1l-8.5,21.1H46.5z"/>
	<path d="M123.7,10.4H93.7L81,42H65.2L82.1,0h50.8c3.1,0,5.2,1.1,6.4,3.2c1.3,2.2,1.4,4.8,0.1,7.8L127,42h-16L123.7,10.4z"/>
	<path d="M243.3,0l-4.2,10.4h-21.9L204.5,42h-17.7l12.7-31.5h-21.7L182.1,0H243.3z"/>
	<path d="M308.8,0l-16.9,42h-15.8l6.1-15h-27.1L249,42h-15.7l16.9-42h15.7L259,17.1h27.1L293,0H308.8z"/>
	<path d="M367.7,16.2l-3.7,8.9h-42.8l-2.5,6.3h45.9L360.3,42h-50.8c-3.1,0-5.3-1.1-6.5-3.2c-1.3-2.2-1.3-4.8-0.1-7.8l8-19.9
		c1.2-3.1,3.3-5.7,6.4-7.8c3.1-2.1,6.1-3.2,9.1-3.2H377l-4.2,10.4h-45.7l-3,5.8H367.7z"/>
</g>
<g>
	<path class="st0" d="M149.9,84.8l-5.6,13.8H78.2l-10.4,26H43.2l19.3-47.8c1.9-4.7,5.2-8.8,9.8-12.1c4.7-3.3,9.4-5,14.1-5h78.1
		L158,75.9H87.4l-3.7,8.9H149.9z"/>
	<path class="st0" d="M256.4,84.8l-5.8,13.8h-66.1l-3.9,9.7h70.9l-6.6,16.2h-78.4c-4.8,0-8.1-1.7-10-5c-2-3.4-2-7.4-0.1-12.1
		l12.4-30.7c1.9-4.7,5.2-8.8,9.8-12.1c4.7-3.3,9.4-5,14.1-5h78.1l-6.5,16.1h-70.6l-4.6,8.9H256.4z"/>
	<path class="st0" d="M346.2,75.9H300l-19.7,48.7h-24.4L282,59.8h78.4c4.7,0,8,1.7,9.9,5c2,3.4,2.1,7.4,0.2,12.1l-19.3,47.8h-24.7
		L346.2,75.9z"/>
	<path class="st0" d="M463.2,108.5l-6.5,16.1h-78.1c-4.8,0-8.1-1.7-10-5c-2-3.3-2-7.3-0.1-12.1l12.4-30.7c1.9-4.7,5.2-8.8,9.8-12.1
		c4.7-3.3,9.4-5,14.1-5h78.3l-6.5,16.1h-70.8l-13.2,32.6H463.2z"/>
	<path class="st0" d="M574.3,84.8l-5.8,13.8h-66.1l-3.9,9.7h70.9l-6.6,16.2h-78.4c-4.8,0-8.1-1.7-10-5c-2-3.4-2-7.4-0.1-12.1
		l12.4-30.7c1.9-4.7,5.2-8.8,9.8-12.1c4.7-3.3,9.4-5,14.1-5h78.1l-6.5,16.1h-70.6l-4.6,8.9H574.3z"/>
	<path class="st0" d="M685.1,76.8l-1.7,4.3c-0.9,2.4-2.2,4.5-3.9,6.5c-1.6,2-3.6,3.8-6,5.5c-4.6,3.3-9.3,5-14.1,5H638l-0.6,1.7
		h-24.6c1.8-4.5,5.1-8.5,9.7-11.9c4.7-3.4,9.4-5.1,14.1-5.1h21.5l3-7.5h-69.5l6.3-15.6h77c4.8,0,8.1,1.7,10,5
		C687,68.1,687,72.1,685.1,76.8z M602.6,124.6l7.4-18.3h24.7l-7.4,18.3H602.6z"/>
</g>
</svg>
