<?xml version="1.0" encoding="utf-8"?>
<!-- Generator: Adobe Illustrator 19.1.0, SVG Export Plug-In . SVG Version: 6.00 Build 0)  -->
<svg version="1.1" id="Layer_1" xmlns="http://www.w3.org/2000/svg" xmlns:xlink="http://www.w3.org/1999/xlink" x="0px" y="0px"
	 viewBox="0.5 -78.5 165 165" style="enable-background:new 0.5 -78.5 165 165;" xml:space="preserve">
<style type="text/css">
	.st0{fill:none;}
	.st1{fill:#D31F26;}
	.st2{fill:#BCBEC0;}
	.st3{fill:#FFFFFF;}
</style>
<path class="st0" d="M83,73.1c38.1,0,69.1-31.1,69.1-69.1s-31-69.1-69.1-69.1S13.9-34.1,13.9,4S44.9,73.1,83,73.1z"/>
<path class="st1" d="M83-65.1c38.1,0,69.1,31.1,69.1,69.1s-31,69.1-69.1,69.1S13.9,42.1,13.9,4S44.9-65.1,83-65.1z"/>
<path class="st2" d="M83-78.5C37.5-78.5,0.5-41.5,0.5,4s37,82.5,82.5,82.5s82.5-37,82.5-82.5S128.5-78.5,83-78.5z M83-71.6
	c41.6,0,75.6,34,75.6,75.6s-34,75.6-75.6,75.6S7.4,45.6,7.4,4S41.4-71.6,83-71.6z"/>
<g>
	<path class="st3" d="M68.5,1.2c0.2-8.4,7-15.2,15.3-15.2c1.4,0,2.4-0.3,3.7-1.2c11-8.7,22-17.3,33-26c0.3-0.3,0.7-0.5,1-0.9
		c2.3-1.7,4.4-1.7,5.9-0.2s1.6,3.8-0.2,5.9c-7.7,9.9-15.3,19.7-23,29.7c-0.3,0.5-0.9,1-1.2,1.6c-2.1,2.6-3.7,5.1-4,8.7
		c-0.7,7.2-6.8,12.4-13.8,12.9c-7,0.5-13.6-3.8-15.7-10.8C69,4.3,68.8,2.6,68.5,1.2z M77,1.2c0,4,3.1,7.2,7,7.2s7-3.3,7-7
		c0-3.8-3.1-7.2-7.2-7.2C80.2-5.8,77-2.6,77,1.2z"/>
	<path class="st3" d="M29.1,24.1l1.4-1.2c0,0-9.9-32.8,17.4-49.5s44.8-1.6,44.8-1.6l21.6-17.8c0,0-31.2-21.6-66.3,2.4
		S29.1,24.1,29.1,24.1z"/>
	<path class="st3" d="M112.5-6.8c0,0,4,7.5,2.4,14.8l24.9,7c0,0,6.8-27.2-7.2-46.6L112.5-6.8z"/>
</g>
</svg>
