<?xml version="1.0" encoding="utf-8"?>
<!-- Generator: Adobe Illustrator 19.1.0, SVG Export Plug-In . SVG Version: 6.00 Build 0)  -->
<svg version="1.1" id="Layer_1" xmlns="http://www.w3.org/2000/svg" xmlns:xlink="http://www.w3.org/1999/xlink" x="0px" y="0px"
	 viewBox="0 -2.8 86 86" style="enable-background:new 0 -2.8 86 86;" xml:space="preserve">
<style type="text/css">
	.st0{fill:#BCBEC0;}
	.st1{fill:#D31F26;}
	.st2{fill:#FFFFFF;}
</style>
<path class="st0" d="M43-2.8c-23.7,0-43,19.3-43,43s19.3,43,43,43s43-19.3,43-43S66.7-2.8,43-2.8z M43,0.8
	c21.7,0,39.4,17.7,39.4,39.4S64.7,79.6,43,79.6S3.6,61.9,3.6,40.2S21.3,0.8,43,0.8z"/>
<path class="st1" d="M82.3,40.1c0,21.7-17.7,39.4-39.4,39.4c-21.6,0-39.3-17.7-39.3-39.4S21.3,0.8,43,0.8S82.3,18.4,82.3,40.1z"/>
<g>
	<path class="st2" d="M34.4,39.8c0.1-4.8,4-8.7,8.8-8.7c0.8,0,1.4-0.2,2.1-0.7c6.3-5,12.6-9.9,18.9-14.9c0.2-0.2,0.4-0.3,0.6-0.5
		c1.3-1,2.5-1,3.4-0.1s0.9,2.2-0.1,3.4c-4.4,5.7-8.8,11.3-13.2,17c-0.2,0.3-0.5,0.6-0.7,0.9c-1.2,1.5-2.1,2.9-2.3,5
		c-0.4,4.1-3.9,7.1-7.9,7.4c-4,0.3-7.8-2.2-9-6.2C34.7,41.6,34.6,40.6,34.4,39.8z M39.3,39.8c0,2.3,1.8,4.1,4,4.1s4-1.9,4-4
		c0-2.2-1.8-4.1-4.1-4.1C41.1,35.8,39.3,37.6,39.3,39.8z"/>
	<path class="st2" d="M11.8,52.9l0.8-0.7c0,0-5.7-18.8,10-28.4s25.7-0.9,25.7-0.9l12.4-10.2c0,0-17.9-12.4-38,1.4
		S11.8,52.9,11.8,52.9z"/>
	<path class="st2" d="M59.6,35.2c0,0,2.3,4.3,1.4,8.5l14.3,4c0,0,3.9-15.6-4.1-26.7L59.6,35.2z"/>
</g>
</svg>
