<?xml version="1.0" encoding="utf-8"?>
<!-- Generator: Adobe Illustrator 19.1.0, SVG Export Plug-In . SVG Version: 6.00 Build 0)  -->
<svg version="1.1" id="Layer_1" xmlns="http://www.w3.org/2000/svg" xmlns:xlink="http://www.w3.org/1999/xlink" x="0px" y="0px"
	 viewBox="-109.9 -4.7 86 86" style="enable-background:new -109.9 -4.7 86 86;" xml:space="preserve">
<style type="text/css">
	.st0{fill:#D31F26;}
	.st1{fill:#FFFFFF;}
	.st2{fill:#BCBEC0;}
</style>
<path class="st0" d="M-27.4,38.5c0,21.7-17.7,39.4-39.4,39.4s-39.4-17.7-39.4-39.4S-88.5-0.8-66.8-0.8S-27.4,16.8-27.4,38.5z"/>
<g>
	<path class="st1" d="M-44.8,41.7c-3.5-3.6-8.9-4.9-13.7-3.2l-0.4,0.2l-7-7.2l0.2-0.4c2.4-5.3,1.4-11.4-2.7-15.6
		c-5.4-5.5-14.3-5.7-19.8-0.3s-5.7,14.3-0.3,19.8c4.1,4.2,10.1,5.4,15.5,3.1l0.4-0.2l6.8,7l-0.2,0.4c-2.2,4.9-1.3,10.6,2.5,14.4
		c5,5.1,13.2,5.3,18.4,0.3S-39.8,46.8-44.8,41.7z M-86.5,33.2c-4.3-4.4-4.2-11.4,0.2-15.7s11.4-4.2,15.7,0.2s4.2,11.4-0.2,15.7
		S-82.2,37.6-86.5,33.2z M-63.9,42.2l-0.5,0.6l-6-6.1l0.6-0.5c0.4-0.3,0.7-0.6,1.1-0.9c0.2-0.2,0.4-0.4,0.6-0.7l0.5-0.6l5.9,6.1
		l-0.6,0.5c-0.3,0.3-0.6,0.5-0.9,0.8C-63.5,41.6-63.7,41.9-63.9,42.2z M-61.6,58.2c-4-4.1-3.9-10.7,0.2-14.7s10.7-3.9,14.7,0.2
		s3.9,10.7-0.2,14.7C-51.1,62.4-57.6,62.3-61.6,58.2z"/>
	<g>
		<path class="st1" d="M-74.1,30h-4.1l-1.3-5.1l-1.4,5.1H-85l2.5-9.5h4.1l1.3,5.1l1.4-5.1h4.1L-74.1,30z"/>
	</g>
	<g>
		<path class="st1" d="M-49.3,52.7c-0.5,1.8-1.6,2.7-3.4,2.7h-5.5c-1.4,0-2.1-0.5-2.1-1.6c0-0.3,0-0.6,0.1-1l1.1-4.2
			c0.5-1.8,1.6-2.7,3.4-2.7h5.5c1.4,0,2.1,0.5,2.1,1.6c0,0.3,0,0.6-0.1,1L-49.3,52.7z M-53.2,52l0.7-2.8c0-0.2,0.1-0.4,0.1-0.5
			c0-0.5-0.3-0.8-1-0.8c-0.9,0-1.4,0.4-1.7,1.3l-0.7,2.8c0,0.2-0.1,0.4-0.1,0.5c0,0.5,0.3,0.8,1,0.8C-54,53.4-53.4,52.9-53.2,52z"/>
	</g>
	<path class="st1" d="M-58.8,35l13.5-16.7h-6.8l4.4-11c0.2-0.4,0.3-0.7,0.6-1.6c-2.1-1.2-4.3-2.3-6.5-3.1l-0.6,1.5L-62,23.8h7.3
		L-58.8,35z"/>
	<path class="st1" d="M-73.1,41.6l-13.5,16.7h6.8l-4.8,11.8c-0.2,0.5-0.4,0.8-0.6,1.5c2.1,1.2,4.3,2.1,6.6,2.9L-78,73l8.2-20.2h-7.3
		L-73.1,41.6z"/>
	
		<rect x="-70.3" y="38.1" transform="matrix(-0.6757 -0.7371 0.7371 -0.6757 -138.3224 16.3966)" class="st1" width="9.5" height="1"/>
</g>
<path class="st2" d="M-67,85.6c26.1,0,47.3-21.2,47.3-47.3S-40.9-9-67-9s-47.3,21.2-47.3,47.3S-93.1,85.6-67,85.6z M-23.7,38.3
	c0,23.9-19.5,43.3-43.3,43.3s-43.3-19.5-43.3-43.3S-90.9-5-67-5S-23.7,14.4-23.7,38.3z"/>
</svg>
