<?xml version="1.0" encoding="utf-8"?>
<!-- Generator: Adobe Illustrator 19.1.0, SVG Export Plug-In . SVG Version: 6.00 Build 0)  -->
<svg version="1.1" id="Layer_1" xmlns="http://www.w3.org/2000/svg" xmlns:xlink="http://www.w3.org/1999/xlink" x="0px" y="0px"
	 viewBox="0 -79.1 165 165" style="enable-background:new 0 -79.1 165 165;" xml:space="preserve">
<style type="text/css">
	.st0{fill:none;}
	.st1{fill:#D31F26;}
	.st2{fill:#BCBEC0;}
	.st3{fill:#FFFFFF;}
</style>
<path class="st0" d="M82.5,72.5c38.1,0,69.1-31.1,69.1-69.1s-31-69.1-69.1-69.1s-69.1,31-69.1,69.1S44.4,72.5,82.5,72.5z"/>
<path class="st1" d="M82.5-65.7c38.1,0,69.1,31.1,69.1,69.1s-31,69.1-69.1,69.1s-69.1-31-69.1-69.1S44.4-65.7,82.5-65.7z"/>
<path class="st2" d="M82.5-79.1C37-79.1,0-42.1,0,3.4s37,82.5,82.5,82.5S165,48.9,165,3.4S128-79.1,82.5-79.1z M82.5-72.2
	c41.6,0,75.6,34,75.6,75.6S124.1,79,82.5,79S6.9,45,6.9,3.4S40.9-72.2,82.5-72.2z"/>
<g>
	<path class="st3" d="M120.8,8.9c-6.1-6.3-15.5-8.5-23.9-5.6l-0.7,0.3L84-8.9l0.3-0.7c4.2-9.2,2.4-19.9-4.7-27.2
		c-9.4-9.6-24.9-9.9-34.5-0.5s-9.9,24.9-0.5,34.5c7.2,7.3,17.6,9.4,27,5.4l0.7-0.3l11.9,12.2l-0.3,0.7c-3.8,8.5-2.3,18.5,4.4,25.1
		c8.7,8.9,23,9.2,32.1,0.5S129.5,18,120.8,8.9z M48.1-5.9c-7.5-7.7-7.3-19.9,0.3-27.4s19.9-7.3,27.4,0.3s7.3,19.9-0.3,27.4
		S55.6,1.8,48.1-5.9z M87.5,10l-0.9,1L76.2,0.4l1-0.9c0.7-0.5,1.2-1,1.9-1.6c0.3-0.3,0.7-0.7,1-1.2l0.9-1L91.3,6.3l-1,0.9
		c-0.5,0.5-1,0.9-1.6,1.4C88.4,8.9,87.8,9.4,87.5,10z M91.5,37.9c-7-7.2-6.8-18.7,0.3-25.6c7.2-7,18.7-6.8,25.6,0.3
		c7,7.2,6.8,18.7-0.3,25.6C110,45.2,98.5,45,91.5,37.9z"/>
	<g>
		<path class="st3" d="M69.7-11.3h-7.2l-2.3-8.9l-2.4,8.9h-7.2l4.4-16.6h7.2l2.3,8.9l2.4-8.9h7.2L69.7-11.3z"/>
	</g>
	<g>
		<path class="st3" d="M113,28.3c-0.9,3.1-2.8,4.7-5.9,4.7h-9.6c-2.4,0-3.7-0.9-3.7-2.8c0-0.5,0-1,0.2-1.7l1.9-7.3
			c0.9-3.1,2.8-4.7,5.9-4.7h9.6c2.4,0,3.7,0.9,3.7,2.8c0,0.5,0,1-0.2,1.7L113,28.3z M106.2,27l1.2-4.9c0-0.3,0.2-0.7,0.2-0.9
			c0-0.9-0.5-1.4-1.7-1.4c-1.6,0-2.4,0.7-3,2.3l-1.2,4.9c0,0.3-0.2,0.7-0.2,0.9c0,0.9,0.5,1.4,1.7,1.4
			C104.8,29.3,105.8,28.6,106.2,27z"/>
	</g>
	<path class="st3" d="M96.4-2.6l23.5-29.1h-11.9l7.7-19.2c0.3-0.7,0.5-1.2,1-2.8c-3.5-2.1-7.3-4-11.3-5.6l-1,2.6L90.8-22.3h12.6
		L96.4-2.6z"/>
	<path class="st3" d="M71.4,8.9l-23.5,29h11.9l-8.4,20.6c-0.3,0.9-0.7,1.4-1,2.6c3.7,2.1,7.5,3.7,11.5,5.1l1-2.6l14.3-35.2H64.5
		L71.4,8.9z"/>
	
		<rect x="76.4" y="2.9" transform="matrix(-0.6757 -0.7371 0.7371 -0.6757 139.0938 68.6869)" class="st3" width="16.6" height="1.7"/>
</g>
</svg>
