<?xml version="1.0" encoding="utf-8"?>
<!-- Generator: Adobe Illustrator 19.1.0, SVG Export Plug-In . SVG Version: 6.00 Build 0)  -->
<svg version="1.1" id="Layer_1" xmlns="http://www.w3.org/2000/svg" xmlns:xlink="http://www.w3.org/1999/xlink" x="0px" y="0px"
	 viewBox="0 0 86 86" style="enable-background:new 0 0 86 86;" xml:space="preserve">
<style type="text/css">
	.st0{fill:#D31F26;}
</style>
<path class="st0" d="M43,86c23.7,0,43-19.3,43-43S66.7,0,43,0C19.3,0,0,19.3,0,43S19.3,86,43,86z M82.4,43
	c0,21.7-17.7,39.4-39.4,39.4C21.3,82.4,3.6,64.7,3.6,43S21.3,3.6,43,3.6C64.7,3.6,82.4,21.3,82.4,43z"/>
<g>
	<path d="M65,46.1c-3.5-3.6-8.9-4.9-13.7-3.2l-0.4,0.2l-7-7.2l0.2-0.4c2.4-5.3,1.4-11.4-2.7-15.6c-5.4-5.5-14.3-5.7-19.8-0.3
		s-5.7,14.3-0.3,19.8c4.1,4.2,10.1,5.4,15.5,3.1l0.4-0.2l6.8,7l-0.2,0.4c-2.2,4.9-1.3,10.6,2.5,14.4c5,5.1,13.2,5.3,18.4,0.3
		S70,51.3,65,46.1z M23.3,37.6c-4.3-4.4-4.2-11.4,0.2-15.7s11.4-4.2,15.7,0.2s4.2,11.4-0.2,15.7S27.6,42,23.3,37.6z M45.9,46.7
		l-0.5,0.6l-6-6.1l0.6-0.5c0.4-0.3,0.7-0.6,1.1-0.9c0.2-0.2,0.4-0.4,0.6-0.7l0.5-0.6l5.9,6.1l-0.6,0.5c-0.3,0.3-0.6,0.5-0.9,0.8
		C46.4,46.1,46.1,46.4,45.9,46.7z M48.2,62.7c-4-4.1-3.9-10.7,0.2-14.7c4.1-4,10.7-3.9,14.7,0.2c4,4.1,3.9,10.7-0.2,14.7
		C58.8,66.9,52.2,66.8,48.2,62.7z"/>
	<g>
		<path d="M35.7,34.5h-4.1l-1.3-5.1l-1.4,5.1h-4.1l2.5-9.5h4.1l1.3,5.1l1.4-5.1l4.1,0L35.7,34.5z"/>
	</g>
	<g>
		<path d="M60.5,57.2c-0.5,1.8-1.6,2.7-3.4,2.7h-5.5c-1.4,0-2.1-0.5-2.1-1.6c0-0.3,0-0.6,0.1-1l1.1-4.2c0.5-1.8,1.6-2.7,3.4-2.7h5.5
			c1.4,0,2.1,0.5,2.1,1.6c0,0.3,0,0.6-0.1,1L60.5,57.2z M56.6,56.5l0.7-2.8c0-0.2,0.1-0.4,0.1-0.5c0-0.5-0.3-0.8-1-0.8
			c-0.9,0-1.4,0.4-1.7,1.3L54,56.5c0,0.2-0.1,0.4-0.1,0.5c0,0.5,0.3,0.8,1,0.8C55.8,57.8,56.4,57.4,56.6,56.5z"/>
	</g>
	<path d="M51,39.5l13.5-16.7h-6.8l4.4-11c0.2-0.4,0.3-0.7,0.6-1.6C60.7,9,58.5,7.9,56.2,7l-0.6,1.5l-7.8,19.7H55L51,39.5z"/>
	<path d="M36.7,46.1L23.2,62.7H30l-4.8,11.8c-0.2,0.5-0.4,0.8-0.6,1.5c2.1,1.2,4.3,2.1,6.6,2.9l0.6-1.5l8.2-20.2h-7.3L36.7,46.1z"/>
	<rect x="39.5" y="42.7" transform="matrix(0.6757 0.7371 -0.7371 0.6757 46.2146 -18.6625)" width="9.5" height="1"/>
</g>
</svg>
