<?xml version="1.0" encoding="utf-8"?>
<!-- Generator: Adobe Illustrator 19.1.0, SVG Export Plug-In . SVG Version: 6.00 Build 0)  -->
<svg version="1.1" id="Layer_1" xmlns="http://www.w3.org/2000/svg" xmlns:xlink="http://www.w3.org/1999/xlink" x="0px" y="0px"
	 viewBox="-0.5 -0.1 86 86" style="enable-background:new -0.5 -0.1 86 86;" xml:space="preserve">
<style type="text/css">
	.st0{fill:#BCBEC0;}
	.st1{fill:#D31F26;}
	.st2{fill:#FFFFFF;}
</style>
<path class="st0" d="M42.4-0.1c-23.7,0-43,19.3-43,43s19.3,43,43,43s43-19.3,43-43S66.1-0.1,42.4-0.1z M42.4,3.5
	c21.7,0,39.4,17.7,39.4,39.4S64.1,82.3,42.4,82.3S3,64.6,3,42.9S20.7,3.5,42.4,3.5z"/>
<path class="st1" d="M81.8,42.9c0,21.7-17.7,39.4-39.4,39.4C20.8,82.2,3.1,64.6,3.1,42.9S20.8,3.5,42.5,3.5S81.8,21.2,81.8,42.9z"/>
<path class="st2" d="M47.1,23.1c0.1-0.3,0.2-0.6,0.5-0.8c0.4-0.2,0.7-0.5,0.7-1c0.1,0,0.1,0,0.2,0l0,0c0,0.1,0,0.3,0.1,0.4
	c0.3,1.4,0.8,2.6,1.7,3.7c1.3,1.7,3,2.6,5.2,2.6c0.8,0,1.5,0,2.3,0.1c1.4,0.1,2.7-0.4,3.8-1.3s1.8-2,2.3-3.2c0.8-1.9,1-3.9,0.6-6
	c-0.3-1.6-0.8-3-1.8-4.3c-0.6-0.8-1.4-1.5-2.4-2c-0.8-0.4-1.7-0.6-2.6-0.4c-1,0.1-2,0.3-3,0.5c-1.6,0.2-2.9,1-3.9,2.2
	c-1.4,1.5-2.1,3.3-2.2,5.4c0,0.3,0,0.6-0.1,0.9c-0.2,0-0.3,0-0.4,0.1c-0.2,0.1-0.4,0-0.4-0.2c-0.1-0.3-0.4-0.4-0.8-0.4
	c-0.4,0-0.9,0.1-1.3,0.2c-0.2,0-0.3,0.2-0.3,0.4c0,0.1,0,0.3,0,0.4h-0.1c-3.2,0.5-6.3,1.1-9.5,1.6c-0.1,0-0.2,0-0.3,0
	c0.1-0.1,0.2-0.2,0.2-0.4c0.1-0.2,0-0.3-0.1-0.4s-0.3-0.1-0.4,0c-0.2,0.1-0.3,0.2-0.5,0.4c-0.2,0.2-0.5,0.4-0.8,0.5
	c-0.2,0.1-0.5,0.1-0.7,0.2l0,0c0-0.1-0.1-0.2-0.1-0.3c-0.4-1.3-1.1-2.5-2.2-3.3c-1-0.8-2.1-1.1-3.4-0.9c-0.7,0.1-1.3,0.2-2,0.3
	c-1.6,0.2-2.9,1-3.9,2.4c-1,1.3-1.4,2.8-1.3,4.4c0,1.4,0.4,2.8,1.3,3.9c1.1,1.5,2.5,2.3,4.4,2.3c0.4,0,0.8,0,1.2,0
	c0.6,0,1.2,0.1,1.8-0.1c1.1-0.2,2-0.8,2.7-1.6c0.1-0.1,0.2-0.2,0.3-0.3c0,0,0,0,0.1,0c0,0.1,0,0.2,0,0.2c-0.1,1,0,1.9,0.5,2.7
	c0.3,0.4,0.5,0.9,0.8,1.4c0.1,0.1,0.1,0.3,0.1,0.5s0,0.4,0,0.7c0,1.2,0.3,2.4,1.1,3.3c0.1,0.1,0.1,0.2,0,0.3
	c-0.1,0.2-0.2,0.4-0.3,0.6c-0.3,0.6-0.5,1.2-0.6,1.8c-0.1,1.1,0,2.1,0.3,3.1c0.3,1.1,0.8,2,1.2,3c0.4,0.9,0.9,1.8,1.6,2.6
	c0.6,0.6,1,1.4,1.4,2.1c0.1,0.1,0.1,0.2,0.2,0.4c0.1,0.4,0,0.7-0.4,0.9c-0.3,0.1-0.6,0.2-0.8,0.3c-0.6,0.2-1.2,0.4-1.9,0.6
	c-2.3,0.8-4,2.3-5.3,4.3c-0.1,0.1-0.1,0.2-0.2,0.2c-0.3,0.2-0.6,0.5-0.8,0.7c-0.2,0.2-0.3,0.4-0.3,0.6c-0.1,1,0,2.1,0.4,3
	c0.1,0.2,0.1,0.4,0.2,0.7c0.2,1.4,0.4,2.8,1,4.1c0.5,1.1,0.9,2.2,1.4,3.3c0.2,0.5,0.3,1.1-0.1,1.6c-0.2,0.4-0.5,0.7-0.7,1
	s-0.6,0.5-0.9,0.5c-0.3,0.1-0.7,0.1-1,0.2c-0.4,0.1-0.7,0.3-0.9,0.6c-0.1,0.1-0.2,0.2-0.1,0.4c0.1,0.2,0.3,0.1,0.4,0.1
	c0.8,0,1.7,0,2.5-0.1c0.4,0,0.7-0.1,1.1-0.1c1-0.2,1.9-0.2,2.9,0.1c0.5,0.2,1.1,0,1-0.8l0,0c-0.1-0.8-0.3-1.6-0.7-2.3
	c-0.1-0.2-0.2-0.4-0.3-0.7c-0.3-1-0.5-2.1-0.7-3.1c-0.2-0.9-0.3-1.8,0-2.7c0.1-0.5,0.1-0.9-0.1-1.4c-0.3-0.6-0.5-1.1-0.8-1.7
	C33,61.6,33,61.3,33.5,61c0.4-0.3,0.8-0.5,1.2-0.8c0.1-0.1,0.3-0.1,0.5-0.1c0.9,0,1.9-0.1,2.8-0.1c0.7,0,1.4-0.2,2.1-0.6
	c0.8-0.4,1.6-0.8,2.3-1.3c0.2-0.1,0.3-0.1,0.5,0c0.5,0.3,0.9,0.6,1.2,1.2c0.6,1.1,1.3,2.2,2.1,3.2c0.6,0.7,1.2,1.3,2,1.8
	c0.2,0.1,0.4,0.3,0.6,0.5c0.2,0.2,0.4,0.4,0.7,0.5s0.7,0.3,1,0.4c0.7,0.2,1.3,0.3,2,0.4c0.2,0,0.3,0.1,0.5,0.2
	c0.8,0.8,1.8,1.3,2.9,1.8c1.2,0.5,2.4,1,3.6,1.6c0.2,0.1,0.4,0.3,0.6,0.4c0.2,0.2,0.2,0.4,0.2,0.6c-0.1,0.2-0.1,0.5-0.1,0.7
	c-0.1,0.5-0.2,0.9,0,1.4c0.1,0.1,0,0.3-0.1,0.4c-0.2,0.1-0.3,0.1-0.5,0.2c-0.4,0.1-0.7,0.3-0.9,0.6c-0.2,0.3-0.1,0.5,0.2,0.6
	c0.1,0,0.3,0.1,0.4,0.1c0.8,0,1.6,0,2.3,0c0.3,0,0.5-0.1,0.8-0.2s0.5-0.4,0.5-0.7c0.1-0.7,0.3-1.3,0.7-1.9c0.2-0.3,0.3-0.6,0.4-0.9
	c0.3-0.9,0.1-1.4-0.7-1.8c-1.8-0.8-3.4-1.9-4.7-3.4c-0.1-0.1-0.2-0.2-0.3-0.4c-0.7-1.9-2.6-2.4-4.1-2.3c-0.3,0-0.5,0-0.7-0.1
	c-0.9-0.3-0.9-0.3-1.1-1.1c-0.4-1.2-0.8-2.3-1.2-3.5c-1.3-1.8-2.2-3.8-3.4-5.8c-0.6-1-1.4-1.7-2.4-2.2c-0.1,0-0.2-0.1-0.2-0.2
	c-0.4-0.6-0.8-1.3-1-2.1s-0.3-1.6-0.5-2.3c0-0.1,0-0.2,0.1-0.3c0.3-0.6,0.6-1.3,0.7-2c0.2-0.8,0.2-1.5,0.2-2.3c0-0.2,0-0.3,0.2-0.4
	c0.1-0.1,0.2-0.2,0.3-0.3c0.5-0.4,0.7-0.9,0.7-1.5c0-0.7,0-1.3-0.1-2c0-0.6-0.1-1.2,0-1.7c0.2-1.3,0.3-2.6,0.1-3.9
	c-0.1-0.7-0.1-1.4,0.3-2c0.1-0.1,0.1-0.2,0.1-0.4c0.4-1.1,0.5-2.3,0.4-3.4c0-0.5,0-1,0-1.6C46.9,23.7,47,23.4,47.1,23.1z M59.5,13.3
	c-0.1,0-0.1,0-0.2,0.1c-1.1,0.3-1.9,0.9-2.6,1.7c-0.7,0.9-1.1,2-1.3,3.1c-0.3,1.7-0.1,3.4,0.7,5c0.5,1,1.2,1.9,2.3,2.4
	c0.4,0.2,0.7,0.3,1.1,0.4c-0.6,0-1.2-0.2-1.8-0.5c-1-0.6-1.7-1.4-2.2-2.4c-0.6-1.3-0.9-2.7-0.8-4.1c0.1-1,0.3-2,0.8-3
	s1.3-1.9,2.4-2.4C58.5,13.4,59,13.3,59.5,13.3z M52.9,15.4c0.5-1.2,1.3-2.3,2.4-3.1c0.7-0.5,1.5-0.9,2.4-1c0.1,0,0.2,0,0.3,0
	s0.2,0,0.3,0c-0.1,0-0.1,0-0.2,0c-1.4,0.3-2.5,1.1-3.4,2.3s-1.5,2.5-1.7,4c-0.4,2.1-0.2,4.2,0.7,6.2c0.1,0.3,0.3,0.7,0.5,1
	c1,1.6,2.3,2.7,4.2,3.1c-0.3,0.1-0.6,0-1-0.1c-1.1-0.3-2.1-0.8-2.9-1.7c-1.1-1.1-1.7-2.5-2.1-4C51.8,19.9,51.9,17.6,52.9,15.4z
	 M27.2,30.4c-0.7-0.2-1.2-0.6-1.7-1.1c-0.9-0.9-1.4-2-1.6-3.2c-0.4-1.9-0.2-3.7,0.6-5.4c0.4-0.8,0.9-1.4,1.6-2
	c0.6-0.4,1.2-0.6,1.9-0.6c-0.1,0-0.1,0-0.2,0.1c-1.1,0.3-1.9,0.9-2.5,1.8s-1,2-1.2,3.1c-0.2,1.6-0.1,3.1,0.6,4.5
	c0.2,0.6,0.6,1.1,1,1.6c0.6,0.7,1.4,1.2,2.4,1.4C27.9,30.5,27.6,30.5,27.2,30.4z M28.7,29.1c-0.7-0.2-1.2-0.6-1.7-1.2
	c-0.6-0.7-0.9-1.6-1-2.5c-0.2-1.3-0.1-2.5,0.4-3.8c0.3-0.7,0.8-1.4,1.5-1.8c0.4-0.3,0.9-0.5,1.4-0.5c-0.1,0.1-0.2,0.1-0.3,0.1
	c-0.6,0.2-1.1,0.7-1.6,1.2c-0.5,0.7-0.9,1.5-1,2.4c-0.2,1.4-0.1,2.8,0.6,4.1c0.3,0.6,0.7,1.1,1.3,1.5c0.3,0.2,0.7,0.4,1.1,0.6
	C29.1,29.2,28.9,29.2,28.7,29.1z M42,36.6c-0.2-0.2-0.4-0.4-0.5-0.6c0-0.1,0-0.2,0-0.3c0.3-0.8,0.6-1.7,0.9-2.5
	c0.2-0.7,0.2-1.3,0.1-2c-0.2-0.6-0.5-1.1-1.1-1.5c-1-0.6-2.1-0.8-3.2-0.6c-0.8,0.1-1.4,0.7-1.6,1.5c-0.2,0.5-0.2,0.9-0.2,1.4
	c0,0.1,0.1,0.2,0.1,0.3c0.1,0.1,0.1,0.1,0.2,0.2v0.1c-0.3,0.3-0.3,0.6-0.3,1.1c0.1,0.5,0.2,1,0.2,1.5c0-0.1-0.1-0.1-0.1-0.2
	c-0.5-1-1-2.1-1.5-3.1c0-0.1-0.1-0.2-0.1-0.3c-0.1-1-0.2-2.1-0.5-3.1c-0.1-0.4-0.3-0.9-0.3-1.3c-0.2-1-0.2-2-0.1-3c0,0,0,0,0-0.1
	c0.3,0,0.6-0.1,0.9-0.1c0.2,0,0.5-0.1,0.6-0.3c0.2-0.2,0.4-0.3,0.7-0.4c2.9-0.5,5.9-1,8.8-1.4c0.1,0,0.1,0,0.2,0
	c0,0.2-0.1,0.3-0.1,0.5c-0.2,0.9-0.5,1.7-0.8,2.5c-0.5,1.3-0.7,2.6-0.5,4c0,0.2,0,0.3-0.1,0.5c-0.5,0.7-0.7,1.4-0.8,2.2
	c-0.1,1.1-0.1,2.2-0.2,3.3c0,0.2,0,0.3-0.1,0.5C42.3,35.7,42.1,36.1,42,36.6z"/>
</svg>
