<?xml version="1.0" encoding="utf-8"?>
<!-- Generator: Adobe Illustrator 19.1.0, SVG Export Plug-In . SVG Version: 6.00 Build 0)  -->
<svg version="1.1" id="Layer_1" xmlns="http://www.w3.org/2000/svg" xmlns:xlink="http://www.w3.org/1999/xlink" x="0px" y="0px"
	 viewBox="0.1 -79.4 165 165" style="enable-background:new 0.1 -79.4 165 165;" xml:space="preserve">
<style type="text/css">
	.st0{fill:none;}
	.st1{fill:#D31F26;}
	.st2{fill:#BCBEC0;}
	.st3{fill:#FFFFFF;}
</style>
<path class="st0" d="M82.6,72.2c38.1,0,69.1-31.1,69.1-69.1S120.7-66,82.6-66S13.5-35,13.5,3.1S44.5,72.2,82.6,72.2z"/>
<path class="st1" d="M82.6-66c38.1,0,69.1,31.1,69.1,69.1s-31,69.1-69.1,69.1s-69.1-31-69.1-69.1S44.5-66,82.6-66z"/>
<path class="st2" d="M82.6-79.4c-45.5,0-82.5,37-82.5,82.5s37,82.5,82.5,82.5s82.5-37,82.5-82.5S128.1-79.4,82.6-79.4z M82.6-72.5
	c41.6,0,75.6,34,75.6,75.6s-34,75.6-75.6,75.6S7,44.7,7,3.1S41-72.5,82.6-72.5z"/>
<path class="st3" d="M90.7-31.4c0.2-0.5,0.3-1,0.9-1.4c0.7-0.3,1.2-0.9,1.2-1.7c0.2,0,0.2,0,0.3,0l0,0c0,0.2,0,0.5,0.2,0.7
	c0.5,2.4,1.4,4.5,3,6.5c2.3,3,5.2,4.5,9.1,4.5c1.4,0,2.6,0,4,0.2c2.4,0.2,4.7-0.7,6.6-2.3s3.1-3.5,4-5.6c1.4-3.3,1.7-6.8,1-10.5
	c-0.5-2.8-1.4-5.2-3.1-7.5c-1-1.4-2.4-2.6-4.2-3.5c-1.4-0.7-3-1-4.5-0.7c-1.7,0.2-3.5,0.5-5.2,0.9c-2.8,0.3-5.1,1.7-6.8,3.8
	c-2.4,2.6-3.7,5.8-3.8,9.4c0,0.5,0,1-0.2,1.6c-0.3,0-0.5,0-0.7,0.2c-0.3,0.2-0.7,0-0.7-0.3c-0.2-0.5-0.7-0.7-1.4-0.7
	c-0.7,0-1.6,0.2-2.3,0.3c-0.3,0-0.5,0.3-0.5,0.7c0,0.2,0,0.5,0,0.7h-0.2c-5.6,0.9-11,1.9-16.6,2.8c-0.2,0-0.3,0-0.5,0
	c0.2-0.2,0.3-0.3,0.3-0.7c0.2-0.3,0-0.5-0.2-0.7s-0.5-0.2-0.7,0c-0.3,0.2-0.5,0.3-0.9,0.7c-0.3,0.3-0.9,0.7-1.4,0.9
	c-0.3,0.2-0.9,0.2-1.2,0.3l0,0c0-0.2-0.2-0.3-0.2-0.5c-0.7-2.3-1.9-4.4-3.8-5.8c-1.7-1.4-3.7-1.9-5.9-1.6c-1.2,0.2-2.3,0.3-3.5,0.5
	c-2.8,0.3-5.1,1.7-6.8,4.2c-1.7,2.3-2.4,4.9-2.3,7.7c0,2.4,0.7,4.9,2.3,6.8c1.9,2.6,4.4,4,7.7,4c0.7,0,1.4,0,2.1,0
	c1,0,2.1,0.2,3.1-0.2c1.9-0.3,3.5-1.4,4.7-2.8c0.2-0.2,0.3-0.3,0.5-0.5c0,0,0,0,0.2,0c0,0.2,0,0.3,0,0.3c-0.2,1.7,0,3.3,0.9,4.7
	c0.5,0.7,0.9,1.6,1.4,2.4c0.2,0.2,0.2,0.5,0.2,0.9c0,0.3,0,0.7,0,1.2c0,2.1,0.5,4.2,1.9,5.8c0.2,0.2,0.2,0.3,0,0.5
	c-0.2,0.3-0.3,0.7-0.5,1c-0.5,1-0.9,2.1-1,3.1c-0.2,1.9,0,3.7,0.5,5.4c0.5,1.9,1.4,3.5,2.1,5.2c0.7,1.6,1.6,3.1,2.8,4.5
	c1,1,1.7,2.4,2.4,3.7c0.2,0.2,0.2,0.3,0.3,0.7c0.2,0.7,0,1.2-0.7,1.6c-0.5,0.2-1,0.3-1.4,0.5c-1,0.3-2.1,0.7-3.3,1
	c-4,1.4-7,4-9.2,7.5c-0.2,0.2-0.2,0.3-0.3,0.3c-0.5,0.3-1,0.9-1.4,1.2c-0.3,0.3-0.5,0.7-0.5,1c-0.2,1.7,0,3.7,0.7,5.2
	c0.2,0.3,0.2,0.7,0.3,1.2c0.3,2.4,0.7,4.9,1.7,7.2c0.9,1.9,1.6,3.8,2.4,5.8c0.3,0.9,0.5,1.9-0.2,2.8c-0.3,0.7-0.9,1.2-1.2,1.7
	c-0.3,0.5-1,0.9-1.6,0.9c-0.5,0.2-1.2,0.2-1.7,0.3c-0.7,0.2-1.2,0.5-1.6,1c-0.2,0.2-0.3,0.3-0.2,0.7c0.2,0.3,0.5,0.2,0.7,0.2
	c1.4,0,3,0,4.4-0.2c0.7,0,1.2-0.2,1.9-0.2c1.7-0.3,3.3-0.3,5.1,0.2c0.9,0.3,1.9,0,1.7-1.4l0,0c-0.2-1.4-0.5-2.8-1.2-4
	c-0.2-0.3-0.3-0.7-0.5-1.2c-0.5-1.7-0.9-3.7-1.2-5.4c-0.3-1.6-0.5-3.1,0-4.7c0.2-0.9,0.2-1.6-0.2-2.4c-0.5-1-0.9-1.9-1.4-3
	c-0.3-0.9-0.3-1.4,0.5-1.9c0.7-0.5,1.4-0.9,2.1-1.4c0.2-0.2,0.5-0.2,0.9-0.2c1.6,0,3.3-0.2,4.9-0.2c1.2,0,2.4-0.3,3.7-1
	c1.4-0.7,2.8-1.4,4-2.3c0.3-0.2,0.5-0.2,0.9,0c0.9,0.5,1.6,1,2.1,2.1c1,1.9,2.3,3.8,3.7,5.6c1,1.2,2.1,2.3,3.5,3.1
	c0.3,0.2,0.7,0.5,1,0.9c0.3,0.3,0.7,0.7,1.2,0.9s1.2,0.5,1.7,0.7c1.2,0.3,2.3,0.5,3.5,0.7c0.3,0,0.5,0.2,0.9,0.3
	c1.4,1.4,3.1,2.3,5.1,3.1c2.1,0.9,4.2,1.7,6.3,2.8c0.3,0.2,0.7,0.5,1,0.7c0.3,0.3,0.3,0.7,0.3,1c-0.2,0.3-0.2,0.9-0.2,1.2
	c-0.2,0.9-0.3,1.6,0,2.4c0.2,0.2,0,0.5-0.2,0.7c-0.3,0.2-0.5,0.2-0.9,0.3c-0.7,0.2-1.2,0.5-1.6,1c-0.3,0.5-0.2,0.9,0.3,1
	c0.2,0,0.5,0.2,0.7,0.2c1.4,0,2.8,0,4,0c0.5,0,0.9-0.2,1.4-0.3s0.9-0.7,0.9-1.2c0.2-1.2,0.5-2.3,1.2-3.3c0.3-0.5,0.5-1,0.7-1.6
	c0.5-1.6,0.2-2.4-1.2-3.1c-3.1-1.4-5.9-3.3-8.2-5.9c-0.2-0.2-0.3-0.3-0.5-0.7c-1.2-3.3-4.5-4.2-7.2-4c-0.5,0-0.9,0-1.2-0.2
	c-1.6-0.5-1.6-0.5-1.9-1.9c-0.7-2.1-1.4-4-2.1-6.1C95.6,27,94,23.5,91.9,20c-1-1.7-2.4-3-4.2-3.8c-0.2,0-0.3-0.2-0.3-0.3
	c-0.7-1-1.4-2.3-1.7-3.7s-0.5-2.8-0.9-4c0-0.2,0-0.3,0.2-0.5c0.5-1,1-2.3,1.2-3.5c0.3-1.4,0.3-2.6,0.3-4c0-0.3,0-0.5,0.3-0.7
	c0.2-0.2,0.3-0.3,0.5-0.5c0.9-0.7,1.2-1.6,1.2-2.6c0-1.2,0-2.3-0.2-3.5c0-1-0.2-2.1,0-3c0.3-2.3,0.5-4.5,0.2-6.8
	c-0.2-1.2-0.2-2.4,0.5-3.5c0.2-0.2,0.2-0.3,0.2-0.7c0.7-1.9,0.9-4,0.7-5.9c0-0.9,0-1.7,0-2.8C90.4-30.4,90.5-30.9,90.7-31.4z
	 M112.3-48.5c-0.2,0-0.2,0-0.3,0.2c-1.9,0.5-3.3,1.6-4.5,3c-1.2,1.6-1.9,3.5-2.3,5.4c-0.5,3-0.2,5.9,1.2,8.7c0.9,1.7,2.1,3.3,4,4.2
	c0.7,0.3,1.2,0.5,1.9,0.7c-1,0-2.1-0.3-3.1-0.9c-1.7-1-3-2.4-3.8-4.2c-1-2.3-1.6-4.7-1.4-7.2c0.2-1.7,0.5-3.5,1.4-5.2
	s2.3-3.3,4.2-4.2C110.6-48.3,111.5-48.5,112.3-48.5z M100.8-44.9c0.9-2.1,2.3-4,4.2-5.4c1.2-0.9,2.6-1.6,4.2-1.7c0.2,0,0.3,0,0.5,0
	s0.3,0,0.5,0c-0.2,0-0.2,0-0.3,0c-2.4,0.5-4.4,1.9-5.9,4c-1.6,2.1-2.6,4.4-3,7c-0.7,3.7-0.3,7.3,1.2,10.8c0.2,0.5,0.5,1.2,0.9,1.7
	c1.7,2.8,4,4.7,7.3,5.4c-0.5,0.2-1,0-1.7-0.2c-1.9-0.5-3.7-1.4-5.1-3c-1.9-1.9-3-4.4-3.7-7C98.9-37,99.1-41,100.8-44.9z M56-18.7
	c-1.2-0.3-2.1-1-3-1.9c-1.6-1.6-2.4-3.5-2.8-5.6c-0.7-3.3-0.3-6.5,1-9.4c0.7-1.4,1.6-2.4,2.8-3.5c1-0.7,2.1-1,3.3-1
	c-0.2,0-0.2,0-0.3,0.2c-1.9,0.5-3.3,1.6-4.4,3.1c-1,1.6-1.7,3.5-2.1,5.4c-0.3,2.8-0.2,5.4,1,7.8c0.3,1,1,1.9,1.7,2.8
	c1,1.2,2.4,2.1,4.2,2.4C57.2-18.5,56.7-18.5,56-18.7z M58.6-21c-1.2-0.3-2.1-1-3-2.1c-1-1.2-1.6-2.8-1.7-4.4
	c-0.3-2.3-0.2-4.4,0.7-6.6c0.5-1.2,1.4-2.4,2.6-3.1c0.7-0.5,1.6-0.9,2.4-0.9c-0.2,0.2-0.3,0.2-0.5,0.2c-1,0.3-1.9,1.2-2.8,2.1
	c-0.9,1.2-1.6,2.6-1.7,4.2c-0.3,2.4-0.2,4.9,1,7.2c0.5,1,1.2,1.9,2.3,2.6c0.5,0.3,1.2,0.7,1.9,1C59.3-20.8,59-20.8,58.6-21z
	 M81.8-7.9c-0.3-0.3-0.7-0.7-0.9-1c0-0.2,0-0.3,0-0.5c0.5-1.4,1-3,1.6-4.4c0.3-1.2,0.3-2.3,0.2-3.5c-0.3-1-0.9-1.9-1.9-2.6
	c-1.7-1-3.7-1.4-5.6-1c-1.4,0.2-2.4,1.2-2.8,2.6C72-17.5,72-16.8,72-15.9c0,0.2,0.2,0.3,0.2,0.5c0.2,0.2,0.2,0.2,0.3,0.3v0.2
	c-0.5,0.5-0.5,1-0.5,1.9c0.2,0.9,0.3,1.7,0.3,2.6c0-0.2-0.2-0.2-0.2-0.3c-0.9-1.7-1.7-3.7-2.6-5.4c0-0.2-0.2-0.3-0.2-0.5
	c-0.2-1.7-0.3-3.7-0.9-5.4c-0.2-0.7-0.5-1.6-0.5-2.3c-0.3-1.7-0.3-3.5-0.2-5.2c0,0,0,0,0-0.2c0.5,0,1-0.2,1.6-0.2
	c0.3,0,0.9-0.2,1-0.5c0.3-0.3,0.7-0.5,1.2-0.7C76.8-32,82-32.8,87-33.5c0.2,0,0.2,0,0.3,0c0,0.3-0.2,0.5-0.2,0.9
	c-0.3,1.6-0.9,3-1.4,4.4c-0.9,2.3-1.2,4.5-0.9,7c0,0.3,0,0.5-0.2,0.9c-0.9,1.2-1.2,2.4-1.4,3.8c-0.2,1.9-0.2,3.8-0.3,5.8
	c0,0.3,0,0.5-0.2,0.9C82.3-9.5,82-8.8,81.8-7.9z"/>
</svg>
