<?xml version="1.0" encoding="utf-8"?>
<!-- Generator: Adobe Illustrator 19.1.0, SVG Export Plug-In . SVG Version: 6.00 Build 0)  -->
<svg version="1.1" id="Layer_1" xmlns="http://www.w3.org/2000/svg" xmlns:xlink="http://www.w3.org/1999/xlink" x="0px" y="0px"
	 viewBox="0 0 86 86" style="enable-background:new 0 0 86 86;" xml:space="preserve">
<style type="text/css">
	.st0{fill:#D31F26;}
</style>
<path d="M44.7,22.5c0.1-0.3,0.2-0.6,0.5-0.8c0.4-0.2,0.7-0.5,0.7-1c0.1,0,0.1,0,0.2,0c0,0,0,0,0,0c0,0.1,0,0.3,0.1,0.4
	c0.3,1.4,0.8,2.6,1.7,3.7c1.3,1.7,3,2.6,5.2,2.6c0.8,0,1.5,0,2.3,0.1c1.4,0.1,2.7-0.4,3.8-1.3c1.1-0.9,1.8-2,2.3-3.2
	c0.8-1.9,1-3.9,0.6-6c-0.3-1.6-0.8-3-1.8-4.3c-0.6-0.8-1.4-1.5-2.4-2c-0.8-0.4-1.7-0.6-2.6-0.4c-1,0.1-2,0.3-3,0.5
	c-1.6,0.2-2.9,1-3.9,2.2c-1.4,1.5-2.1,3.3-2.2,5.4c0,0.3,0,0.6-0.1,0.9c-0.2,0-0.3,0-0.4,0.1c-0.2,0.1-0.4,0-0.4-0.2
	c-0.1-0.3-0.4-0.4-0.8-0.4c-0.4,0-0.9,0.1-1.3,0.2c-0.2,0-0.3,0.2-0.3,0.4c0,0.1,0,0.3,0,0.4c0,0-0.1,0-0.1,0
	c-3.2,0.5-6.3,1.1-9.5,1.6c-0.1,0-0.2,0-0.3,0c0.1-0.1,0.2-0.2,0.2-0.4c0.1-0.2,0-0.3-0.1-0.4c-0.1-0.1-0.3-0.1-0.4,0
	c-0.2,0.1-0.3,0.2-0.5,0.4c-0.2,0.2-0.5,0.4-0.8,0.5c-0.2,0.1-0.5,0.1-0.7,0.2c0,0,0,0,0,0c0-0.1-0.1-0.2-0.1-0.3
	c-0.4-1.3-1.1-2.5-2.2-3.3c-1-0.8-2.1-1.1-3.4-0.9c-0.7,0.1-1.3,0.2-2,0.3c-1.6,0.2-2.9,1-3.9,2.4c-1,1.3-1.4,2.8-1.3,4.4
	c0,1.4,0.4,2.8,1.3,3.9c1.1,1.5,2.5,2.3,4.4,2.3c0.4,0,0.8,0,1.2,0c0.6,0,1.2,0.1,1.8-0.1c1.1-0.2,2-0.8,2.7-1.6
	c0.1-0.1,0.2-0.2,0.3-0.3c0,0,0,0,0.1,0c0,0.1,0,0.2,0,0.2c-0.1,1,0,1.9,0.5,2.7c0.3,0.4,0.5,0.9,0.8,1.4c0.1,0.1,0.1,0.3,0.1,0.5
	c0,0.2,0,0.4,0,0.7c0,1.2,0.3,2.4,1.1,3.3c0.1,0.1,0.1,0.2,0,0.3c-0.1,0.2-0.2,0.4-0.3,0.6c-0.3,0.6-0.5,1.2-0.6,1.8
	c-0.1,1.1,0,2.1,0.3,3.1c0.3,1.1,0.8,2,1.2,3c0.4,0.9,0.9,1.8,1.6,2.6c0.6,0.6,1,1.4,1.4,2.1c0.1,0.1,0.1,0.2,0.2,0.4
	c0.1,0.4,0,0.7-0.4,0.9c-0.3,0.1-0.6,0.2-0.8,0.3c-0.6,0.2-1.2,0.4-1.9,0.6c-2.3,0.8-4,2.3-5.3,4.3c-0.1,0.1-0.1,0.2-0.2,0.2
	c-0.3,0.2-0.6,0.5-0.8,0.7c-0.2,0.2-0.3,0.4-0.3,0.6c-0.1,1,0,2.1,0.4,3c0.1,0.2,0.1,0.4,0.2,0.7c0.2,1.4,0.4,2.8,1,4.1
	c0.5,1.1,0.9,2.2,1.4,3.3c0.2,0.5,0.3,1.1-0.1,1.6c-0.2,0.4-0.5,0.7-0.7,1c-0.2,0.3-0.6,0.5-0.9,0.5c-0.3,0.1-0.7,0.1-1,0.2
	c-0.4,0.1-0.7,0.3-0.9,0.6c-0.1,0.1-0.2,0.2-0.1,0.4c0.1,0.2,0.3,0.1,0.4,0.1c0.8,0,1.7,0,2.5-0.1c0.4,0,0.7-0.1,1.1-0.1
	c1-0.2,1.9-0.2,2.9,0.1c0.5,0.2,1.1,0,1-0.8c0,0,0,0,0,0c-0.1-0.8-0.3-1.6-0.7-2.3c-0.1-0.2-0.2-0.4-0.3-0.7c-0.3-1-0.5-2.1-0.7-3.1
	c-0.2-0.9-0.3-1.8,0-2.7c0.1-0.5,0.1-0.9-0.1-1.4c-0.3-0.6-0.5-1.1-0.8-1.7c-0.2-0.5-0.2-0.8,0.3-1.1c0.4-0.3,0.8-0.5,1.2-0.8
	c0.1-0.1,0.3-0.1,0.5-0.1c0.9,0,1.9-0.1,2.8-0.1c0.7,0,1.4-0.2,2.1-0.6c0.8-0.4,1.6-0.8,2.3-1.3c0.2-0.1,0.3-0.1,0.5,0
	c0.5,0.3,0.9,0.6,1.2,1.2c0.6,1.1,1.3,2.2,2.1,3.2c0.6,0.7,1.2,1.3,2,1.8c0.2,0.1,0.4,0.3,0.6,0.5c0.2,0.2,0.4,0.4,0.7,0.5
	c0.3,0.1,0.7,0.3,1,0.4c0.7,0.2,1.3,0.3,2,0.4c0.2,0,0.3,0.1,0.5,0.2c0.8,0.8,1.8,1.3,2.9,1.8c1.2,0.5,2.4,1,3.6,1.6
	c0.2,0.1,0.4,0.3,0.6,0.4c0.2,0.2,0.2,0.4,0.2,0.6c-0.1,0.2-0.1,0.5-0.1,0.7c-0.1,0.5-0.2,0.9,0,1.4c0.1,0.1,0,0.3-0.1,0.4
	c-0.2,0.1-0.3,0.1-0.5,0.2c-0.4,0.1-0.7,0.3-0.9,0.6c-0.2,0.3-0.1,0.5,0.2,0.6c0.1,0,0.3,0.1,0.4,0.1c0.8,0,1.6,0,2.3,0
	c0.3,0,0.5-0.1,0.8-0.2c0.3-0.1,0.5-0.4,0.5-0.7c0.1-0.7,0.3-1.3,0.7-1.9c0.2-0.3,0.3-0.6,0.4-0.9c0.3-0.9,0.1-1.4-0.7-1.8
	c-1.8-0.8-3.4-1.9-4.7-3.4c-0.1-0.1-0.2-0.2-0.3-0.4c-0.7-1.9-2.6-2.4-4.1-2.3c-0.3,0-0.5,0-0.7-0.1c-0.9-0.3-0.9-0.3-1.1-1.1
	c-0.4-1.2-0.8-2.3-1.2-3.5C47.5,56,46.6,54,45.4,52c-0.6-1-1.4-1.7-2.4-2.2c-0.1,0-0.2-0.1-0.2-0.2c-0.4-0.6-0.8-1.3-1-2.1
	c-0.2-0.8-0.3-1.6-0.5-2.3c0-0.1,0-0.2,0.1-0.3c0.3-0.6,0.6-1.3,0.7-2c0.2-0.8,0.2-1.5,0.2-2.3c0-0.2,0-0.3,0.2-0.4
	c0.1-0.1,0.2-0.2,0.3-0.3c0.5-0.4,0.7-0.9,0.7-1.5c0-0.7,0-1.3-0.1-2c0-0.6-0.1-1.2,0-1.7c0.2-1.3,0.3-2.6,0.1-3.9
	c-0.1-0.7-0.1-1.4,0.3-2c0.1-0.1,0.1-0.2,0.1-0.4c0.4-1.1,0.5-2.3,0.4-3.4c0-0.5,0-1,0-1.6C44.5,23.1,44.6,22.8,44.7,22.5z
	 M57.1,12.7c-0.1,0-0.1,0-0.2,0.1c-1.1,0.3-1.9,0.9-2.6,1.7c-0.7,0.9-1.1,2-1.3,3.1c-0.3,1.7-0.1,3.4,0.7,5c0.5,1,1.2,1.9,2.3,2.4
	c0.4,0.2,0.7,0.3,1.1,0.4c-0.6,0-1.2-0.2-1.8-0.5c-1-0.6-1.7-1.4-2.2-2.4c-0.6-1.3-0.9-2.7-0.8-4.1c0.1-1,0.3-2,0.8-3
	c0.5-1,1.3-1.9,2.4-2.4C56.1,12.8,56.6,12.7,57.1,12.7z M50.5,14.8c0.5-1.2,1.3-2.3,2.4-3.1c0.7-0.5,1.5-0.9,2.4-1
	c0.1,0,0.2,0,0.3,0c0.1,0,0.2,0,0.3,0c-0.1,0-0.1,0-0.2,0c-1.4,0.3-2.5,1.1-3.4,2.3c-0.9,1.2-1.5,2.5-1.7,4
	c-0.4,2.1-0.2,4.2,0.7,6.2c0.1,0.3,0.3,0.7,0.5,1c1,1.6,2.3,2.7,4.2,3.1c-0.3,0.1-0.6,0-1-0.1c-1.1-0.3-2.1-0.8-2.9-1.7
	c-1.1-1.1-1.7-2.5-2.1-4C49.4,19.3,49.5,17,50.5,14.8z M24.8,29.8c-0.7-0.2-1.2-0.6-1.7-1.1c-0.9-0.9-1.4-2-1.6-3.2
	c-0.4-1.9-0.2-3.7,0.6-5.4c0.4-0.8,0.9-1.4,1.6-2c0.6-0.4,1.2-0.6,1.9-0.6c-0.1,0-0.1,0-0.2,0.1c-1.1,0.3-1.9,0.9-2.5,1.8
	c-0.6,0.9-1,2-1.2,3.1c-0.2,1.6-0.1,3.1,0.6,4.5c0.2,0.6,0.6,1.1,1,1.6c0.6,0.7,1.4,1.2,2.4,1.4C25.5,29.9,25.2,29.9,24.8,29.8z
	 M26.3,28.5c-0.7-0.2-1.2-0.6-1.7-1.2c-0.6-0.7-0.9-1.6-1-2.5c-0.2-1.3-0.1-2.5,0.4-3.8c0.3-0.7,0.8-1.4,1.5-1.8
	c0.4-0.3,0.9-0.5,1.4-0.5c-0.1,0.1-0.2,0.1-0.3,0.1c-0.6,0.2-1.1,0.7-1.6,1.2c-0.5,0.7-0.9,1.5-1,2.4c-0.2,1.4-0.1,2.8,0.6,4.1
	c0.3,0.6,0.7,1.1,1.3,1.5c0.3,0.2,0.7,0.4,1.1,0.6C26.7,28.6,26.5,28.6,26.3,28.5z M39.6,36c-0.2-0.2-0.4-0.4-0.5-0.6
	c0-0.1,0-0.2,0-0.3c0.3-0.8,0.6-1.7,0.9-2.5c0.2-0.7,0.2-1.3,0.1-2c-0.2-0.6-0.5-1.1-1.1-1.5c-1-0.6-2.1-0.8-3.2-0.6
	c-0.8,0.1-1.4,0.7-1.6,1.5c-0.2,0.5-0.2,0.9-0.2,1.4c0,0.1,0.1,0.2,0.1,0.3c0.1,0.1,0.1,0.1,0.2,0.2c0,0,0,0.1,0,0.1
	c-0.3,0.3-0.3,0.6-0.3,1.1c0.1,0.5,0.2,1,0.2,1.5c0-0.1-0.1-0.1-0.1-0.2c-0.5-1-1-2.1-1.5-3.1c0-0.1-0.1-0.2-0.1-0.3
	c-0.1-1-0.2-2.1-0.5-3.1c-0.1-0.4-0.3-0.9-0.3-1.3c-0.2-1-0.2-2-0.1-3c0,0,0,0,0-0.1c0.3,0,0.6-0.1,0.9-0.1c0.2,0,0.5-0.1,0.6-0.3
	c0.2-0.2,0.4-0.3,0.7-0.4c2.9-0.5,5.9-1,8.8-1.4c0.1,0,0.1,0,0.2,0c0,0.2-0.1,0.3-0.1,0.5c-0.2,0.9-0.5,1.7-0.8,2.5
	c-0.5,1.3-0.7,2.6-0.5,4c0,0.2,0,0.3-0.1,0.5c-0.5,0.7-0.7,1.4-0.8,2.2c-0.1,1.1-0.1,2.2-0.2,3.3c0,0.2,0,0.3-0.1,0.5
	C39.9,35.1,39.7,35.5,39.6,36z"/>
<path class="st0" d="M43,0C19.3,0,0,19.3,0,43c0,23.7,19.3,43,43,43c23.7,0,43-19.3,43-43C86,19.3,66.7,0,43,0z M43,3.6
	c21.7,0,39.4,17.7,39.4,39.4S64.7,82.4,43,82.4C21.3,82.4,3.6,64.7,3.6,43S21.3,3.6,43,3.6z"/>
</svg>
