<?xml version="1.0" encoding="utf-8"?>
<!-- Generator: Adobe Illustrator 19.1.0, SVG Export Plug-In . SVG Version: 6.00 Build 0)  -->
<svg version="1.1" id="Layer_1" xmlns="http://www.w3.org/2000/svg" xmlns:xlink="http://www.w3.org/1999/xlink" x="0px" y="0px"
	 viewBox="0 0 672.8 77" style="enable-background:new 0 0 672.8 77;" xml:space="preserve">
<style type="text/css">
	.st0{fill:#FFFFFF;}
	.st1{fill:#D50000;}
</style>
<g>
	<path class="st0" d="M0,23.3L9.4,0h8.8l-7.1,17.5h8.4L26.6,0h8.8l-7.1,17.5h8.4L43.8,0h8.8l-6.9,17.2c-0.7,1.7-1.9,3.1-3.5,4.3
		c-1.7,1.2-3.4,1.8-5,1.8H0z"/>
	<path class="st0" d="M88.8,0l-9.4,23.3h-8.7l3.4-8.3H59l-3.4,8.3h-8.7L56.3,0H65l-3.8,9.5h15.1L80.1,0H88.8z"/>
	<path class="st0" d="M94.9,15.9l-3,7.4h-8.8L90,6.1c0.7-1.7,1.9-3.1,3.5-4.3C95.3,0.6,97,0,98.6,0h21.9c1.7,0,2.9,0.6,3.6,1.8
		c0.7,1.2,0.7,2.5,0.1,4.1l-7,17.4h-8.7l3-7.4H94.9z M102.2,10.9h11.2l2.1-5.1H99l-2.1,5.1H102.2z"/>
	<path class="st0" d="M164.8,0l-2.3,5.8h-12.1l-7.1,17.5h-9.8l7.1-17.5h-12.1l2.3-5.8H164.8z"/>
	<path class="st0" d="M220.1,0l-3.8,9.4c-0.7,1.3-1.8,2.6-3.4,3.8c-1.6,1.2-3.3,1.7-5.1,1.7h-6l-3.4,8.3h-9.5l3.4-8.4h-6
		c-1.9,0-3.2-0.6-3.9-1.7c-0.8-1.2-0.8-2.7-0.1-4.3l3.6-8.9h9.4l-3.8,9.5h15.5l3.8-9.5H220.1z"/>
	<path class="st0" d="M251.7,0c1.8,0,3,0.6,3.7,1.8c0.7,1.2,0.8,2.7,0.1,4.3l-4.4,11c-0.7,1.7-1.9,3.1-3.6,4.3
		c-1.7,1.2-3.4,1.8-5.1,1.8h-21.9c-1.7,0-3-0.6-3.6-1.8c-0.7-1.2-0.7-2.6,0-4.3l4.4-11c0.7-1.7,1.9-3.1,3.5-4.3
		c1.7-1.2,3.4-1.8,5.1-1.8H251.7z M242,17.5l4.7-11.7h-16.6l-4.7,11.7H242z"/>
	<path class="st0" d="M287.2,0h8.9l-6.9,17.2c-0.7,1.7-1.9,3.1-3.6,4.3c-1.7,1.2-3.4,1.8-5,1.8h-22c-1.7,0-3-0.6-3.7-1.8
		c-0.7-1.1-0.7-2.5-0.1-4l7-17.4h8.8l-7.1,17.5h16.6L287.2,0z"/>
	<path class="st0" d="M307.6,23.3L317,0h8.8l-7.1,17.5h8.4L334.2,0h8.8L336,17.5h8.4L351.4,0h8.8l-6.9,17.2
		c-0.7,1.7-1.9,3.1-3.5,4.3c-1.7,1.2-3.4,1.8-5,1.8H307.6z"/>
	<path class="st0" d="M392,0c1.8,0,3,0.6,3.7,1.8c0.7,1.2,0.8,2.7,0.1,4.3l-4.4,11c-0.7,1.7-1.9,3.1-3.6,4.3
		c-1.7,1.2-3.4,1.8-5.1,1.8h-21.9c-1.7,0-3-0.6-3.6-1.8c-0.7-1.2-0.7-2.6,0-4.3l4.4-11c0.7-1.7,1.9-3.1,3.5-4.3
		c1.7-1.2,3.4-1.8,5.1-1.8H392z M382.3,17.5l4.7-11.7h-16.6l-4.7,11.7H382.3z"/>
	<path class="st0" d="M425.2,5.8h-16.6l-7.1,17.5h-8.8L402.1,0h28.2c1.7,0,2.9,0.6,3.6,1.8c0.7,1.2,0.8,2.7,0.1,4.3L427,23.3h-8.9
		L425.2,5.8z"/>
	<path class="st0" d="M440,0h8.8l-4.7,11.7l-1.5-6h-4.9L440,0z"/>
	<path class="st0" d="M487.1,0l-2.3,5.8h-12.1l-7.1,17.5h-9.8l7.1-17.5h-12.1l2.3-5.8H487.1z"/>
	<path class="st0" d="M537.1,9l-2,5h-23.8l-3.8,9.3h-8.8l6.9-17.2c0.7-1.7,1.9-3.1,3.5-4.3c1.7-1.2,3.4-1.8,5.1-1.8h28.1L540,5.8
		h-25.4L513.3,9H537.1z"/>
	<path class="st0" d="M537,23.3L546.4,0h9.1l-9.4,23.3H537z"/>
	<path class="st0" d="M582.2,5.8h-16.6l-7.1,17.5h-8.8L559.2,0h28.2c1.7,0,2.9,0.6,3.6,1.8c0.7,1.2,0.8,2.7,0.1,4.3L584,23.3h-8.9
		L582.2,5.8z"/>
	<path class="st0" d="M615.9,23.3h-28.2l7.1-17.5h0l2.3-5.8h28.2c1.7,0,2.9,0.6,3.6,1.8c0.7,1.2,0.8,2.7,0.1,4.3l-4.4,11
		c-0.7,1.7-1.9,3.1-3.6,4.3C619.3,22.7,617.6,23.3,615.9,23.3z M615.6,17.5l4.7-11.7h-16.7l-4.7,11.7H615.6z"/>
</g>
<path class="st1" d="M14.2,76.9l15.7-38.8H45L29.4,76.9H14.2z"/>
<path class="st1" d="M89.6,47.8H61.9L50.1,76.9H35.4l15.7-38.8h47c2.8,0,4.8,1,6,3c1.2,2,1.3,4.4,0.1,7.2L92.6,76.9H77.8L89.6,47.8z
	"/>
<path class="st1" d="M174.7,61.4h-30.4c-1.5-0.2-2.9-0.7-4-1.3c-1.1-0.6-2-1.4-2.6-2.2c-0.6-0.9-1-1.9-1-3.1
	c-0.1-1.2,0.2-2.5,0.7-3.9l1.1-2.6c1.1-2.8,3.1-5.1,6-7.2c3-2,6-3,9.1-3h46.6l-3.8,9.2h-41.7l-2.2,5.6h30.3c1.6,0.2,3,0.5,4.2,0.9
	c1.2,0.5,2.2,1.1,2.9,1.9c0.7,0.8,1.1,1.7,1.2,2.8c0.1,1.1-0.1,2.3-0.7,3.7l-1.8,4.6c-1.1,2.8-3.2,5.2-6.2,7.2c-3,2-6,3-9.1,3h-46.5
	l3.6-9.1h41.5L174.7,61.4z"/>
<path class="st1" d="M248.8,38.1h14.8L252,66.7c-1.2,2.8-3.2,5.2-6,7.2c-2.8,2-5.6,3-8.4,3H201c-2.9,0-5-1-6.2-3
	c-1.1-1.9-1.1-4.2-0.1-6.7l11.7-29h14.6l-11.8,29.2H237L248.8,38.1z"/>
<path class="st1" d="M275.9,63.1l-5.6,13.8h-16.3l15.7-38.8h46.7c3.2,0,5.5,1,6.9,3c1.5,2,1.6,4.4,0.5,7.2l-1.9,4.6
	c-1.1,2.8-3.2,5.1-6.3,7.2c-3,2-6.1,3-9.3,3H275.9z M304.9,54l2.6-6.5h-25.3l-2.6,6.5H304.9z"/>
<path class="st1" d="M381.9,53.1l-3.5,8.3h-39.6l-2.3,5.8h42.5l-3.9,9.7h-47c-2.9,0-4.9-1-6-3c-1.2-2-1.2-4.4-0.1-7.2l7.4-18.4
	c1.1-2.8,3.1-5.2,5.9-7.2c2.8-2,5.6-3,8.4-3h46.8l-3.9,9.7h-42.3l-2.7,5.3H381.9z"/>
<path class="st1" d="M408.3,47.5l-11.9,29.5h-15.1l15.7-38.8h44.9c3,0,5.1,1,6.2,3c1.3,2,1.4,4.4,0.2,7.2l-1.8,4.6
	c-0.5,1.2-1.1,2.3-1.9,3.3c-0.8,1.1-1.7,2-2.8,2.9c-1.1,0.9-2.4,1.6-3.9,2.2c-1.5,0.6-3.1,1-5,1.3L438,77h-16.1l-5.8-23h14.6
	l2.6-6.5H408.3z"/>
<path class="st1" d="M492,61.4h-30.4c-1.5-0.2-2.9-0.7-4-1.3c-1.1-0.6-2-1.4-2.6-2.2c-0.6-0.9-1-1.9-1-3.1c-0.1-1.2,0.2-2.5,0.7-3.9
	l1.1-2.6c1.1-2.8,3.1-5.1,6-7.2c3-2,6-3,9.1-3h46.6l-3.8,9.2h-41.7l-2.2,5.6h30.3c1.6,0.2,3,0.5,4.2,0.9c1.2,0.5,2.2,1.1,2.9,1.9
	c0.7,0.8,1.1,1.7,1.2,2.8c0.1,1.1-0.1,2.3-0.7,3.7l-1.8,4.6c-1.1,2.8-3.2,5.2-6.2,7.2c-3,2-6,3-9.1,3h-46.5l3.6-9.1h41.5L492,61.4z"
	/>
<path class="st1" d="M572,53.1l-3.5,8.3H529l-2.3,5.8h42.5l-3.9,9.7h-47c-2.9,0-4.9-1-6-3c-1.2-2-1.2-4.4-0.1-7.2l7.4-18.4
	c1.1-2.8,3.1-5.2,5.9-7.2c2.8-2,5.6-3,8.4-3h46.8l-3.9,9.7h-42.3l-2.7,5.3H572z"/>
<path class="st1" d="M644.5,38.1l-3.9,9.7h-20.2l-11.8,29.2h-16.3L604,47.8h-20.1l3.9-9.7H644.5z"/>
<path class="st1" d="M659.9,39.7h-3.4l-2,4.8h-2.7l2-4.8h-3.3l0.6-1.6h9.4L659.9,39.7z M672.6,38.6c0.2,0.3,0.2,0.7,0,1.2l-1.9,4.8
	h-2.4l2-4.8h-2.3l-2,4.8h-2.4l2-4.8h-2.3l-2,4.8h-2.4l2.6-6.5h10.3C672.1,38.1,672.4,38.3,672.6,38.6z"/>
<g>
	<path class="st1" d="M623,70.4h8.8l-2.6,6.5h-8.8L623,70.4z"/>
</g>
</svg>
